<svg width="22" height="14" viewBox="0 0 22 14" fill="none" xmlns="http://www.w3.org/2000/svg">
<path d="M0.219782 1.90753L1.32191 0.805478C1.46877 0.658311 1.63794 0.584959 1.8292 0.584959C2.01999 0.584959 2.18908 0.658311 2.33594 0.805478L10.9999 9.46894L19.6634 0.805711C19.8103 0.658544 19.9794 0.585192 20.1705 0.585192C20.3616 0.585192 20.5306 0.658544 20.6775 0.805711L21.7795 1.90784C21.9266 2.0547 22 2.22379 22 2.41489C22 2.60584 21.9264 2.77494 21.7795 2.92179L11.5069 13.1946C11.3601 13.3415 11.1909 13.415 10.9999 13.415C10.8088 13.415 10.64 13.3415 10.4932 13.1946L0.219782 2.92179C0.0729235 2.77486 -4.0231e-05 2.60576 -4.02143e-05 2.41489C-4.01976e-05 2.22379 0.0729235 2.0547 0.219782 1.90753Z" fill="#0A0521"/>
</svg>
