<svg width="22" height="14" viewBox="0 0 22 14" fill="none" xmlns="http://www.w3.org/2000/svg">
<path d="M21.7802 12.0924L20.6781 13.1944C20.5312 13.3416 20.3621 13.4149 20.1708 13.4149C19.98 13.4149 19.8109 13.3416 19.6641 13.1944L11.0001 4.53094L2.3366 13.1942C2.18967 13.3413 2.02057 13.4147 1.82955 13.4147C1.63845 13.4147 1.46935 13.3413 1.32249 13.1942L0.220519 12.092C0.073352 11.9452 2.86543e-07 11.7761 3.19956e-07 11.585C3.53342e-07 11.394 0.0735838 11.2249 0.220519 11.0781L10.4931 0.805291C10.6399 0.658357 10.8091 0.584927 11.0001 0.584927C11.1912 0.584927 11.36 0.658357 11.5068 0.805291L21.7802 11.0781C21.9271 11.225 22 11.3941 22 11.585C22 11.7761 21.9271 11.9452 21.7802 12.0924Z" fill="white"/>
</svg>
