<svg width="547" height="367" viewBox="0 0 547 367" fill="none" xmlns="http://www.w3.org/2000/svg">
<path d="M131.792 355.637C57.3841 355.637 -18.9287 340.178 4.21499 276.469C5.76306 272.205 7.2943 268.107 8.79978 264.157C18.4021 274.834 33.7568 287.106 53.6086 287.106C56.2652 287.106 59.0009 286.885 61.8154 286.414C92.2875 281.296 126.28 261.954 148.35 261.954C155.28 261.954 161.034 263.859 165.135 268.714C172.825 277.812 178.966 287.92 181.474 299.652C183.55 309.362 178.218 319.513 183.412 328.193C185.932 332.406 189.684 335.717 193.375 338.953C189.776 335.797 186.273 311.367 185.491 306.335C181.065 277.877 169.528 229.725 141.818 203.084C128.423 190.207 115.121 183.587 101.423 183.587C86.7853 183.587 71.6954 191.141 55.5379 206.689C40.18 221.466 28.1304 232.053 18.7443 238.903C37.3584 192.478 46.7781 168.887 22.1325 130.943C-6.51076 86.8434 43.4669 24.1965 87.844 13.598C93.1812 12.3238 98.2693 11.7547 103.167 11.7547C131.968 11.7547 154.313 31.3803 183.779 42.3005C197.683 47.453 208.632 57.0575 222.059 63.2841C236.574 70.0154 252.474 73.4742 268.357 73.6632C270.57 96.1046 279.41 122.573 284.601 146.301C301.394 223.074 283.649 283.807 285.46 283.807C285.506 283.807 285.563 283.77 285.636 283.692C293.869 274.716 296.293 214.766 293.561 179.334C290.829 143.901 300.323 135.71 318.557 123.967C336.79 112.224 353.122 88.7831 350.524 62.9835C350.08 58.569 350.348 53.8833 351.1 49.1489C368.839 39.5064 386.128 28.4344 404.214 18.6986C423.696 8.20752 446.296 9.15527e-05 468.585 9.15527e-05C474.552 9.15527e-05 480.49 0.587067 486.349 1.87564C491.754 3.06757 497.088 4.85367 502.296 7.327C513.202 12.5099 522.784 22.4533 524.505 34.8268C525.4 41.2381 524.566 47.3274 522.823 53.2458C506.304 49.2556 483.357 45.082 459.64 45.082C430.143 45.082 399.457 51.5359 378.453 72.8231C325.085 126.907 306.717 265.491 306.717 265.491C306.717 265.491 314.705 249.239 327.294 233.878C320.946 251.823 317.224 269.809 315.126 283.296C314.337 288.381 312.845 293.103 311.254 297.951C310.898 299.034 308.923 307.485 311.55 307.485C311.971 307.485 312.507 307.267 313.186 306.771C316.642 304.247 316.818 292.422 317.384 288.622C318.893 278.489 318.267 266.275 335.136 246.319C339.166 241.55 344.818 239.677 351.63 239.677C373.321 239.677 406.73 258.688 436.679 263.716C439.442 264.182 442.13 264.398 444.743 264.398C471.252 264.398 489.603 242.134 496.697 231.788C498.161 229.652 497.173 226.666 494.697 225.898C486.063 223.216 472.744 213.292 452.736 194.72C468.889 185.355 485.075 169.33 500.066 142.113C502.589 137.531 504.984 133.204 507.249 129.122C509 137.114 511.641 144.894 515.124 152.244C525.984 175.152 545.216 195.174 546.475 220.697C547.263 236.592 540.602 252.104 531.12 264.571C521.635 277.037 509.451 286.915 497.392 296.665C475.483 314.375 450.896 342.126 424.692 351.309C415.611 354.49 405.972 355.56 396.096 355.56C375.909 355.562 354.73 351.086 335.301 351.023C329.295 351.003 323.306 350.991 317.339 350.991C266.54 350.991 217.057 351.778 165.831 354.648C154.782 355.267 143.309 355.637 131.792 355.637ZM74.7501 61.095C72.0301 61.095 70.0597 63.6846 70.7809 66.3112C72.635 73.0629 76.408 88.6352 83.8237 124.475C96.491 185.692 135.296 185.988 157.115 193.834C178.933 201.68 185.758 244.68 185.758 244.68C185.758 244.68 201.792 149.966 177.719 103.638C157.413 64.5587 94.0918 61.1916 74.7715 61.095C74.7644 61.095 74.7572 61.095 74.7501 61.095Z" fill="#E2E9FC"/>
<path d="M185.491 306.334C181.065 277.877 169.528 229.725 141.818 203.084C114.108 176.445 86.8145 176.593 55.5379 206.689C29.4739 231.767 12.9413 244.778 2.78001 247.933C0.26386 248.715 -0.745456 251.753 0.744834 253.924C8.67675 265.488 30.4256 291.685 61.8154 286.414C101.855 279.689 147.972 248.405 165.135 268.714C172.825 277.812 178.966 287.92 181.474 299.652C183.55 309.362 178.218 319.513 183.412 328.193C185.932 332.406 189.684 335.717 193.375 338.952C189.776 335.797 186.273 311.367 185.491 306.334Z" fill="#009BA6"/>
<path d="M177.733 277.168C177.696 277.168 177.662 277.146 177.651 277.108C175.787 271.321 173.736 265.596 171.322 260.027C170.691 258.649 170.095 257.255 169.424 255.894C169.094 255.212 168.782 254.521 168.437 253.846L167.404 251.824C165.988 249.147 164.478 246.52 162.828 243.989C159.507 238.941 155.635 234.252 151.123 230.271C146.615 226.286 141.421 223.114 135.845 220.883C133.056 219.766 130.174 218.882 127.243 218.205L125.036 217.734C124.297 217.591 123.554 217.469 122.813 217.336L122.535 217.287L122.258 217.253L121.706 217.185L120.6 217.048C120.232 216.99 119.859 216.987 119.488 216.967L118.374 216.914C118.102 216.908 117.83 216.904 117.558 216.904C114.853 216.904 112.144 217.239 109.49 217.829C106.566 218.468 103.702 219.41 100.923 220.563C95.3601 222.87 90.129 225.974 85.19 229.469C80.2579 232.981 75.5745 236.876 71.2693 241.159L71.2673 241.162C71.2498 241.179 71.2272 241.187 71.2046 241.187C71.1818 241.187 71.1588 241.179 71.1415 241.162C71.1084 241.127 71.1071 241.074 71.1382 241.039C73.1694 238.763 75.3612 236.643 77.6197 234.595C79.8807 232.55 82.2264 230.592 84.6704 228.76C87.1106 226.923 89.6375 225.194 92.2662 223.623C94.8926 222.051 97.6098 220.614 100.436 219.408C103.259 218.198 106.183 217.195 109.193 216.502C111.972 215.873 114.825 215.512 117.69 215.512C117.929 215.512 118.168 215.514 118.407 215.519L119.571 215.57C119.959 215.589 120.348 215.592 120.733 215.651L121.891 215.788L122.47 215.858L122.759 215.893L123.043 215.944C123.798 216.082 124.555 216.208 125.309 216.356L127.561 216.843C130.553 217.543 133.502 218.455 136.357 219.608C142.076 221.898 147.381 225.22 151.958 229.329C156.557 233.424 160.392 238.287 163.68 243.44C165.31 246.029 166.793 248.706 168.178 251.425C169.558 254.15 170.793 256.942 171.955 259.761C174.228 265.421 176.172 271.201 177.814 277.06C177.827 277.106 177.801 277.153 177.755 277.166C177.748 277.166 177.74 277.168 177.733 277.168Z" fill="#DEE8FD"/>
<path d="M185.757 244.68C185.757 244.68 178.933 201.68 157.114 193.834C135.296 185.988 96.4908 185.693 83.8236 124.475C76.4077 88.6361 72.6346 73.064 70.7807 66.3118C70.0593 63.6851 72.0298 61.0961 74.7498 61.0961C74.757 61.0961 74.764 61.0961 74.7713 61.0961C94.0914 61.1913 157.413 64.5599 177.719 103.637C201.792 149.967 185.757 244.68 185.757 244.68ZM91.9234 76.1318C91.8959 76.1318 91.8688 76.1468 91.852 76.1694C91.8247 76.2095 91.8342 76.2646 91.8738 76.2897L91.8758 76.2922C98.2618 80.741 104.346 85.6109 110.219 90.7063L112.428 92.6112L114.594 94.5637L116.759 96.5161C117.48 97.1678 118.176 97.847 118.885 98.5112L121.008 100.509L122.07 101.506L123.106 102.531L127.251 106.632L131.287 110.835C132.652 112.219 133.941 113.672 135.251 115.106L137.21 117.261L138.191 118.339L139.139 119.444L142.926 123.873L143.874 124.979L144.787 126.114L146.613 128.382L148.439 130.65L149.352 131.786C149.65 132.169 149.936 132.56 150.228 132.949L153.72 137.611L154.593 138.776C154.737 138.969 154.886 139.162 155.027 139.359L155.442 139.954L157.104 142.335C157.671 143.12 158.181 143.943 158.71 144.754C159.233 145.568 159.769 146.374 160.282 147.195L161.777 149.685L162.524 150.931L163.232 152.199L164.647 154.736L165.986 157.315L166.655 158.605C166.875 159.036 167.08 159.475 167.293 159.91L168.56 162.525C168.968 163.404 169.358 164.291 169.758 165.174L170.355 166.499C170.549 166.943 170.731 167.393 170.92 167.839L172.042 170.522L173.095 173.232C173.269 173.685 173.45 174.135 173.618 174.59L174.111 175.958C174.437 176.871 174.783 177.777 175.094 178.696L176.024 181.453C176.34 182.37 176.611 183.302 176.906 184.226C179.215 191.636 181.043 199.198 182.453 206.84C183.163 210.66 183.754 214.503 184.222 218.363C184.46 220.292 184.655 222.227 184.823 224.164C184.993 226.1 185.136 228.043 185.197 229.981V229.986C185.2 230.068 185.268 230.133 185.351 230.133C185.435 230.133 185.504 230.063 185.504 229.981C185.494 226.072 185.241 222.178 184.865 218.293C184.491 214.409 183.992 210.536 183.374 206.681C182.752 202.826 181.994 198.993 181.134 195.183C180.285 191.369 179.273 187.592 178.161 183.845C175.96 176.342 173.188 169.006 169.944 161.883L168.683 159.232C168.471 158.791 168.268 158.346 168.048 157.908L167.376 156.603L166.028 153.995L164.602 151.427L163.889 150.143L163.137 148.882L161.629 146.361C161.112 145.529 160.572 144.712 160.044 143.887C159.51 143.066 158.995 142.232 158.423 141.436L156.745 139.024L156.325 138.42C156.183 138.222 156.033 138.029 155.887 137.834L155.004 136.663L151.475 131.986C151.179 131.598 150.89 131.204 150.589 130.818L149.667 129.68L147.822 127.405L145.977 125.129L145.055 123.991L144.098 122.883L140.252 118.464L139.288 117.362L138.293 116.286L136.303 114.138C133.685 111.241 130.905 108.497 128.168 105.715L123.944 101.659L122.888 100.644L121.806 99.6591L119.643 97.6866C118.917 97.0349 118.206 96.3682 117.468 95.7291L115.255 93.8142L113.041 91.8994L110.786 90.0346L108.524 88.1774L106.224 86.3703C104.7 85.1547 103.135 83.9893 101.578 82.8163C100.805 82.2223 100.006 81.6608 99.2192 81.0869C98.4312 80.5129 97.642 79.9415 96.8387 79.3876C96.0371 78.8336 95.2371 78.2747 94.4223 77.7409C93.6132 77.197 92.7969 76.6656 91.9693 76.1468C91.9553 76.1368 91.9392 76.1318 91.9234 76.1318Z" fill="#009BA6"/>
<path d="M185.351 230.133C185.268 230.133 185.2 230.068 185.197 229.985V229.98C185.136 228.043 184.993 226.099 184.823 224.163C184.655 222.226 184.46 220.292 184.222 218.363C183.754 214.503 183.163 210.66 182.454 206.839C181.043 199.198 179.216 191.636 176.906 184.226C176.611 183.302 176.34 182.37 176.024 181.452L175.095 178.695C174.784 177.777 174.437 176.871 174.111 175.958L173.618 174.589C173.45 174.134 173.269 173.685 173.095 173.232L172.042 170.521L170.92 167.839C170.731 167.392 170.549 166.943 170.355 166.499L169.758 165.174C169.358 164.291 168.968 163.404 168.56 162.525L167.293 159.909C167.08 159.475 166.875 159.035 166.655 158.604L165.986 157.315L164.647 154.736L163.232 152.199L162.524 150.93L161.777 149.685L160.282 147.195C159.769 146.374 159.233 145.568 158.71 144.753C158.181 143.943 157.671 143.119 157.105 142.335L155.442 139.954L155.027 139.359C154.886 139.162 154.737 138.969 154.593 138.776L153.72 137.61L150.228 132.948C149.936 132.56 149.65 132.169 149.352 131.785L148.439 130.65L146.613 128.382L144.787 126.114L143.874 124.978L142.926 123.873L139.139 119.444L138.191 118.339L137.21 117.261L135.251 115.106C133.941 113.672 132.652 112.218 131.287 110.835L127.251 106.631L123.107 102.531L122.07 101.506L121.008 100.508L118.886 98.5108C118.176 97.8466 117.481 97.1674 116.759 96.5157L114.594 94.5633L112.428 92.6108L110.219 90.706C104.346 85.6105 98.2619 80.7406 91.8759 76.2918L91.8739 76.2893C91.8343 76.2643 91.8248 76.2091 91.8521 76.169C91.8689 76.1465 91.896 76.1314 91.9235 76.1314C91.9393 76.1314 91.9554 76.1364 91.9694 76.1465C92.797 76.6653 93.6133 77.1966 94.4224 77.7405C95.2372 78.2744 96.0373 78.8333 96.8388 79.3872C97.6421 79.9411 98.4313 80.5126 99.2193 81.0865C100.006 81.6605 100.805 82.2219 101.578 82.8159C103.135 83.9889 104.7 85.1544 106.224 86.3699L108.525 88.1771L110.787 90.0343L113.041 91.899L115.255 93.8139L117.468 95.7288C118.206 96.3679 118.917 97.0346 119.643 97.6862L121.807 99.6588L122.888 100.644L123.944 101.659L128.168 105.714C130.905 108.496 133.685 111.241 136.303 114.138L138.293 116.286L139.288 117.361L140.252 118.464L144.098 122.883L145.055 123.991L145.977 125.129L147.822 127.404L149.667 129.68L150.589 130.818C150.89 131.204 151.179 131.597 151.475 131.986L155.004 136.663L155.887 137.833C156.033 138.029 156.183 138.222 156.326 138.42L156.745 139.024L158.423 141.436C158.995 142.232 159.51 143.066 160.044 143.886C160.572 144.712 161.112 145.528 161.629 146.36L163.137 148.881L163.89 150.143L164.602 151.426L166.028 153.994L167.376 156.603L168.048 157.908C168.268 158.345 168.471 158.791 168.683 159.232L169.944 161.883C173.188 169.006 175.96 176.342 178.162 183.844C179.273 187.591 180.285 191.368 181.134 195.182C181.994 198.993 182.753 202.826 183.374 206.68C183.992 210.536 184.491 214.409 184.865 218.293C185.242 222.177 185.494 226.072 185.504 229.98C185.504 230.063 185.436 230.133 185.351 230.133Z" fill="url(#paint0_linear_24_4588)"/>
<path d="M285.636 283.692C282.738 286.85 301.814 225.001 284.601 146.301C276.488 109.216 259.459 65.437 272.761 40.7994C283.829 20.2947 343.628 7.13379 363.379 3.29401C365.845 2.81531 367.76 5.42191 366.554 7.62753C360.617 18.5077 348.551 43.4085 350.523 62.9833C353.122 88.7839 336.791 112.224 318.557 123.966C300.323 135.711 290.829 143.902 293.561 179.334C296.293 214.766 293.869 274.717 285.636 283.692Z" fill="#009BA6"/>
<path d="M289.618 155.534C289.488 155.534 289.38 155.43 289.373 155.3C289.23 152.128 289.152 148.961 289.135 145.791C289.117 144.206 289.125 142.622 289.117 141.037L289.15 136.282C289.205 129.944 289.418 123.607 289.696 117.274C289.994 110.94 290.358 104.612 290.834 98.2906L291.197 93.5485L291.601 88.8115L291.802 86.443C291.869 85.6535 291.967 84.8464 292.047 84.0494C292.157 83.2549 292.253 82.4553 292.383 81.6633C292.521 80.8713 292.644 80.0768 292.814 79.2923C293.443 76.1393 294.3 73.0314 295.398 70.0087C295.93 68.4923 296.549 67.0061 297.188 65.5323C297.849 64.0686 298.541 62.6174 299.301 61.2013C300.055 59.7852 300.86 58.3916 301.714 57.0332C302.559 55.6697 303.461 54.3413 304.394 53.038C305.321 51.7297 306.306 50.464 307.313 49.2183C308.329 47.9802 309.389 46.7771 310.466 45.5966C311.552 44.4186 312.67 43.2757 313.812 42.1553C314.953 41.035 316.141 39.9648 317.339 38.9096C319.743 36.8067 322.251 34.8267 324.848 32.9795C326.146 32.0546 327.465 31.1574 328.803 30.2952C330.147 29.438 331.507 28.6109 332.886 27.8139C335.646 26.2273 338.468 24.7611 341.413 23.5305C341.445 23.5179 341.478 23.5104 341.508 23.5104C341.606 23.5104 341.696 23.5681 341.736 23.6608C341.786 23.7811 341.733 23.919 341.618 23.9766L341.611 23.9816C340.202 24.6709 338.824 25.4529 337.458 26.2349C336.094 27.0244 334.753 27.854 333.425 28.7011C332.096 29.5483 330.788 30.428 329.502 31.3353C328.212 32.2351 326.941 33.165 325.693 34.1224C323.204 36.0448 320.778 38.0474 318.469 40.1728C316.163 42.3007 313.945 44.5239 311.858 46.8573C309.777 49.1982 307.817 51.642 306.005 54.1884C305.103 55.4642 304.231 56.7625 303.416 58.0934C302.589 59.4167 301.822 60.7777 301.085 62.1512C300.346 63.5247 299.669 64.9308 299.022 66.3519C298.398 67.778 297.794 69.2167 297.273 70.6854C296.2 73.6128 295.361 76.623 294.742 79.6783C294.423 81.2046 294.185 82.7461 293.967 84.29C293.882 85.067 293.782 85.8339 293.709 86.6209L293.486 88.9819L293.04 93.7064L292.636 98.4335C292.36 101.584 292.122 104.737 291.874 107.89L291.541 112.622L291.375 114.988L291.23 117.357C291.135 118.936 291.025 120.512 290.939 122.091L290.679 126.831L290.453 131.568L290.248 136.31L290.08 141.052C290.042 142.633 289.987 144.215 289.962 145.796C289.902 148.958 289.842 152.124 289.864 155.283V155.287C289.867 155.422 289.756 155.533 289.621 155.534H289.618Z" fill="#C8D9FD"/>
<path d="M306.717 265.49C306.717 265.49 334.669 208.631 368.376 207.089C373.648 206.847 379.421 207.041 385.575 207.236C418.757 208.283 463.037 209.33 500.066 142.113C525.766 95.4619 537.699 75.4286 543.175 66.8358C545.314 63.484 543.671 59.0228 539.867 57.8691C512.961 49.7082 423.468 27.2006 378.453 72.8233C325.086 126.908 306.717 265.49 306.717 265.49Z" fill="#009BA6"/>
<path d="M313.592 245.38C313.576 245.38 313.559 245.377 313.545 245.372C313.465 245.344 313.421 245.259 313.445 245.181C315.145 239.76 317.18 234.457 319.373 229.221C321.565 223.986 323.929 218.82 326.451 213.73C328.972 208.642 331.678 203.642 334.511 198.718C337.334 193.784 340.365 188.971 343.52 184.242C349.803 174.765 356.807 165.762 364.375 157.259L367.265 154.117C367.751 153.595 368.224 153.064 368.713 152.551L370.209 151.025L373.199 147.98L376.284 145.023L377.826 143.545L379.412 142.116L382.591 139.26C383.664 138.326 384.767 137.423 385.853 136.503C386.949 135.592 388.022 134.654 389.156 133.794L392.522 131.162L393.363 130.504C393.648 130.288 393.937 130.081 394.222 129.87L395.938 128.607C397.085 127.769 398.222 126.916 399.378 126.089L402.855 123.627L404.595 122.398L406.359 121.197L409.876 118.795L413.437 116.452L415.217 115.281L417.014 114.137L420.615 111.86L424.257 109.641L426.074 108.534L427.911 107.453C429.135 106.736 430.355 106.007 431.586 105.298C436.508 102.465 441.487 99.7287 446.526 97.1035C451.569 94.4933 456.662 91.9769 461.805 89.5713C466.948 87.1743 472.149 84.8857 477.393 82.716C482.643 80.5578 487.944 78.5283 493.288 76.6226C498.633 74.7175 504.024 72.9341 509.499 71.4518C509.506 71.4498 509.516 71.4488 509.526 71.4488C509.563 71.4488 509.597 71.4743 509.607 71.5128C509.62 71.5581 509.593 71.6047 509.55 71.6188L509.546 71.6191C506.837 72.4422 504.155 73.3609 501.49 74.3091C498.817 75.2462 496.162 76.2309 493.52 77.2469C488.232 79.279 482.999 81.4389 477.818 83.7135C472.625 85.971 467.485 88.3458 462.399 90.8266C457.309 93.2993 452.27 95.8669 447.281 98.5345C442.305 101.225 437.363 103.982 432.488 106.842C431.267 107.559 430.057 108.294 428.843 109.018L427.026 110.109L425.222 111.226L421.618 113.463L418.05 115.753L416.267 116.896L414.5 118.067L410.963 120.408L407.469 122.809L405.719 124.009L403.992 125.237L400.538 127.698C399.388 128.523 398.262 129.375 397.125 130.212L395.419 131.473L394.57 132.106L393.736 132.755L390.399 135.354C389.273 136.203 388.21 137.13 387.127 138.03C386.047 138.939 384.954 139.831 383.892 140.753L380.737 143.575L379.164 144.988L377.635 146.449L374.574 149.372L371.603 152.385L370.118 153.892C369.625 154.397 369.152 154.921 368.67 155.435L365.783 158.531C364.841 159.579 363.915 160.646 362.98 161.702L361.582 163.291C361.119 163.825 360.673 164.372 360.22 164.913L357.505 168.164L354.876 171.484C354.44 172.039 353.998 172.588 353.568 173.148L352.294 174.841C351.449 175.972 350.578 177.084 349.75 178.229L347.275 181.667C346.859 182.237 346.457 182.818 346.058 183.402L344.858 185.149L343.661 186.895C343.265 187.48 342.883 188.075 342.494 188.664C341.723 189.849 340.935 191.021 340.18 192.215L337.924 195.805C337.173 197.004 336.459 198.222 335.725 199.429C332.821 204.281 330.068 209.224 327.453 214.239C324.831 219.253 322.363 224.348 320.063 229.519C318.907 232.101 317.807 234.71 316.744 237.334C315.681 239.956 314.655 242.597 313.74 245.272L313.737 245.277C313.713 245.339 313.656 245.38 313.592 245.38Z" fill="#DEE8FD"/>
<path d="M311.55 307.485C308.921 307.485 310.897 299.034 311.251 297.951C312.844 293.104 314.336 288.382 315.126 283.296C317.223 269.809 320.944 251.824 327.29 233.878C329.335 231.382 331.505 228.908 333.776 226.531C333.259 227.477 332.754 228.432 332.262 229.392C330.898 232.063 329.676 234.8 328.522 237.563C326.257 243.107 324.326 248.779 322.668 254.523C322.658 254.568 322.681 254.616 322.724 254.628C322.733 254.631 322.743 254.633 322.75 254.633C322.786 254.633 322.819 254.608 322.832 254.573C324.618 248.871 326.614 243.234 328.961 237.745C329.574 236.387 330.151 235.011 330.807 233.672C331.128 232.999 331.433 232.319 331.77 231.655L332.783 229.66C333.649 228.006 334.553 226.37 335.51 224.764C345.059 215.229 356.354 207.639 368.377 207.089C370.127 207.009 371.933 206.977 373.792 206.977C377.525 206.977 381.465 207.106 385.576 207.236C389.686 207.366 393.967 207.496 398.382 207.496C403.037 207.496 407.845 207.351 412.762 206.911C413.103 207.151 413.444 207.394 413.785 207.639C418.613 211.13 423.198 214.988 427.384 219.242V219.244C427.404 219.262 427.427 219.27 427.45 219.27C427.469 219.27 427.489 219.263 427.509 219.247C427.545 219.214 427.545 219.158 427.512 219.122C425.493 216.908 423.326 214.841 421.094 212.846C418.859 210.853 416.541 208.95 414.132 207.167C413.978 207.053 413.824 206.939 413.667 206.826C426.221 205.61 439.469 202.412 452.735 194.721C472.743 213.293 486.064 223.216 494.697 225.898C497.169 226.666 498.162 229.653 496.697 231.788C489.6 242.134 471.251 264.398 444.743 264.398C442.131 264.398 439.44 264.183 436.677 263.717C406.727 258.689 373.317 239.678 351.627 239.678C344.819 239.678 339.165 241.55 335.133 246.32C318.266 266.276 318.892 278.489 317.384 288.622C316.817 292.422 316.64 304.247 313.185 306.771C312.507 307.267 311.969 307.485 311.55 307.485Z" fill="#009BA6"/>
<path d="M327.291 233.878C334.107 214.605 343.947 195.377 358.05 181.82C371.213 169.164 384.286 162.658 397.746 162.658C412.135 162.658 426.965 170.082 442.846 185.362C446.31 188.698 449.605 191.814 452.735 194.721C439.47 202.412 426.22 205.61 413.667 206.826C411.405 205.168 409.068 203.603 406.656 202.165C404.073 200.632 401.411 199.229 398.636 198.059C395.869 196.884 393.003 195.914 390.06 195.246C387.338 194.63 384.551 194.276 381.751 194.276C381.523 194.276 381.291 194.279 381.063 194.283L379.928 194.332C379.549 194.351 379.168 194.353 378.795 194.41L377.666 194.545L377.101 194.612L376.819 194.646L376.539 194.695C375.8 194.831 375.058 194.955 374.319 195.1L372.114 195.577C369.186 196.263 366.299 197.157 363.505 198.286C357.915 200.534 352.716 203.761 348.225 207.774C343.713 211.774 339.937 216.526 336.699 221.57C335.669 223.193 334.701 224.85 333.779 226.531C331.505 228.908 329.336 231.382 327.291 233.878ZM335.509 224.764C336.077 223.809 336.66 222.864 337.261 221.933C340.517 216.952 344.317 212.316 348.759 208.377C353.196 204.437 358.318 201.282 363.83 199.087C366.581 197.985 369.426 197.113 372.319 196.445L374.494 195.981C375.224 195.841 375.956 195.721 376.686 195.589C377.419 195.47 378.149 195.401 378.879 195.303C379.243 195.246 379.612 195.243 379.982 195.223L381.084 195.17C381.357 195.163 381.628 195.16 381.901 195.16C384.578 195.16 387.254 195.491 389.873 196.072C392.763 196.714 395.584 197.655 398.323 198.801C403.412 200.94 408.227 203.73 412.76 206.911C407.845 207.351 403.036 207.496 398.383 207.496C393.965 207.496 389.684 207.366 385.575 207.236C381.466 207.106 377.527 206.977 373.791 206.977C371.934 206.977 370.129 207.009 368.375 207.089C356.353 207.639 345.059 215.228 335.509 224.764Z" fill="#009BA6"/>
<path d="M322.749 254.634C322.741 254.634 322.732 254.631 322.724 254.629C322.681 254.617 322.655 254.569 322.669 254.524C324.325 248.779 326.257 243.107 328.519 237.563C329.676 234.801 330.895 232.064 332.26 229.392C332.753 228.433 333.258 227.478 333.776 226.532C334.349 225.936 334.924 225.347 335.509 224.765C334.554 226.371 333.648 228.007 332.782 229.661L331.767 231.656C331.434 232.32 331.126 232.999 330.807 233.673C330.149 235.012 329.573 236.388 328.958 237.746C326.613 243.235 324.618 248.872 322.832 254.574C322.818 254.609 322.786 254.634 322.749 254.634ZM427.448 219.271C427.425 219.271 427.402 219.262 427.385 219.245L427.382 219.243C423.196 214.989 418.612 211.131 413.785 207.64C413.443 207.395 413.104 207.152 412.759 206.911C413.061 206.884 413.363 206.856 413.665 206.827C413.822 206.94 413.976 207.054 414.13 207.167C416.54 208.951 418.857 210.854 421.094 212.846C423.325 214.842 425.493 216.909 427.513 219.122C427.544 219.159 427.544 219.215 427.507 219.248C427.49 219.263 427.47 219.271 427.448 219.271Z" fill="url(#paint1_linear_24_4588)"/>
<path d="M333.78 226.53C334.706 224.849 335.673 223.192 336.699 221.569C339.941 216.525 343.714 211.772 348.225 207.773C352.717 203.759 357.917 200.532 363.509 198.285C366.303 197.156 369.186 196.262 372.116 195.576L374.322 195.099C375.06 194.953 375.801 194.829 376.542 194.694L376.818 194.644L377.103 194.611L377.667 194.543L378.798 194.409C379.171 194.352 379.552 194.349 379.931 194.331L381.064 194.282C381.294 194.277 381.523 194.275 381.752 194.275C384.553 194.275 387.342 194.629 390.062 195.245C393.006 195.912 395.869 196.883 398.636 198.058C401.412 199.228 404.076 200.631 406.658 202.164C409.071 203.602 411.407 205.166 413.671 206.825C413.367 206.854 413.065 206.882 412.764 206.909C408.228 203.729 403.416 200.939 398.324 198.8C395.587 197.653 392.765 196.713 389.874 196.071C387.256 195.49 384.58 195.159 381.902 195.159C381.628 195.159 381.357 195.162 381.086 195.169L379.983 195.222C379.613 195.241 379.245 195.245 378.883 195.302C378.151 195.4 377.421 195.469 376.688 195.588C375.959 195.719 375.226 195.839 374.496 195.98L372.321 196.444C369.427 197.112 366.583 197.984 363.832 199.086C358.32 201.281 353.198 204.435 348.762 208.376C344.32 212.315 340.519 216.951 337.263 221.932C336.663 222.864 336.077 223.808 335.513 224.763C334.927 225.345 334.352 225.934 333.78 226.53Z" fill="#C7D8FD"/>
<path d="M509.439 356.663H40.1875C30.2162 356.663 22.133 348.58 22.133 338.607V299.725C22.133 295.327 25.6992 291.76 30.0986 291.76H509.439C513.836 291.76 517.403 295.327 517.403 299.725V348.697C517.403 353.096 513.836 356.663 509.439 356.663Z" fill="url(#paint2_linear_24_4588)"/>
<path d="M175.103 201.458C195.633 190.832 171.357 162.766 170.249 161.72L212.998 165.024C212.998 165.024 221.505 182.904 201.796 206.702C196.809 212.722 190.073 212.349 184.305 214.299C182.693 206.641 179.075 205.213 175.103 201.458Z" fill="url(#paint3_linear_24_4588)"/>
<path d="M250.92 117.855C250.92 117.855 226.468 99.6315 164.373 128.147C164.373 128.147 157.78 135.821 160.339 144.891C162.897 153.961 201.405 215.007 201.857 237.798C201.857 237.798 221.49 242.239 254.123 229.178C254.123 229.178 267.374 169.604 250.92 117.855Z" fill="#7D97F4"/>
<path d="M197.596 87.2177L208.554 113.617C209.461 115.595 209.157 117.928 207.73 119.57C204.847 122.886 198.936 127.262 189.301 123.878C186.435 122.873 184.312 120.42 183.735 117.437L179.488 95.4636L197.596 87.2177Z" fill="url(#paint4_linear_24_4588)"/>
<path d="M163.407 73.1715C163.357 73.7304 172.767 109.609 172.767 109.609L193.139 103.802L189.273 68.4695C189.273 68.4695 164.233 63.8152 163.407 73.1715Z" fill="url(#paint5_linear_24_4588)"/>
<path d="M185.069 76.6232L188.561 95.0625C188.606 95.3006 188.618 95.5363 188.598 95.7744C188.47 97.2431 187.661 102.258 182.578 101.118C177.966 100.083 173.742 99.2056 170.915 100.246C169.646 100.712 168.939 102.063 169.282 103.371C170.138 106.629 172.203 113.941 174.965 120.016C175.526 121.249 176.942 121.836 178.22 121.384C182.069 120.029 190.109 116.941 195.994 112.941C196.792 112.397 197.233 111.474 197.14 110.514C196.683 105.835 195.347 91.6113 195.588 87.5886C195.814 83.814 200.293 81.3126 202.248 80.3978C202.889 80.097 203.375 79.5531 203.6 78.8814C204.398 76.5079 205.378 71.069 198.489 69.2419C197.047 68.8584 196.216 67.3721 196.642 65.9435C197.491 63.0963 197.678 58.8154 192.313 56.7576C186.86 54.6673 183.042 57.7226 181.024 60.1488C180.207 61.1288 178.823 61.3468 177.709 60.7252C177.074 60.3718 176.278 60.2891 175.356 60.9358C174.115 61.808 172.383 61.3569 171.644 60.031C170.225 57.487 167.473 54.8278 162.313 56.0082C153.155 58.1011 152.674 68.4048 155.444 74.2722C158.215 80.1396 168.014 77.3049 172.826 74.004C176.485 71.4951 181.529 73.6356 183.736 74.806C184.435 75.177 184.922 75.8462 185.069 76.6232Z" fill="url(#paint6_linear_24_4588)"/>
<path d="M196.792 94.3154C196.792 94.3154 192.403 83.8839 196.164 81.0617C199.925 78.2395 205.783 79.2722 204.935 87.0519C203.881 96.7291 196.792 94.3154 196.792 94.3154Z" fill="url(#paint7_linear_24_4588)"/>
<path d="M539.668 307.479H5.55691C2.48775 307.479 0 304.99 0 301.923V281.596C0 278.528 2.48775 276.039 5.55691 276.039H539.668C542.739 276.039 545.224 278.528 545.224 281.596V301.923C545.224 304.99 542.739 307.479 539.668 307.479Z" fill="url(#paint8_linear_24_4588)"/>
<path d="M347.598 267.536C347.598 267.536 452.53 266.855 467.432 266.775C481.531 266.697 511.804 269.597 523.167 282.7C524.14 283.82 525.903 283.753 526.807 282.575L529.839 278.62C529.839 278.62 521.922 271.998 509.923 262.223C501.687 255.516 498.484 251.43 496.176 249.623C495.122 248.796 492.118 249.095 491.027 249.869L486.364 253.172C483.69 254.423 480.679 254.751 477.8 254.105C462.231 250.619 410.467 238.974 399.334 235.848C386.184 232.159 364.593 232.868 349.625 244.681C334.66 256.491 347.598 267.536 347.598 267.536Z" fill="url(#paint9_linear_24_4588)"/>
<path d="M43.6224 275.799C43.4188 275.87 14.4722 285.659 18.5752 250.65C18.5752 250.65 14.0138 234.324 29.6142 231.737C29.6142 231.737 35.4882 220.235 49.9409 226.577C45.5438 218.111 42.1632 207.966 53.5972 203.862C58.0247 202.273 62.9563 202.619 67.481 203.905C74.8448 205.998 81.7924 210.982 84.3209 218.207C86.8493 225.433 83.6065 234.747 76.3947 237.317C74.4059 238.026 71.794 238.675 71.5108 240.768C71.3208 242.169 72.3767 243.389 73.249 244.502C76.7524 248.979 77.9797 255.906 74.2362 260.182C71.1534 263.704 65.9697 264.255 61.3001 264.566C56.8061 264.864 53.3977 264.598 50.0074 267.719C47.9411 269.621 46.245 274.89 43.6224 275.799Z" fill="url(#paint10_linear_24_4588)"/>
<path d="M108.093 262.831C107.779 262.024 107.474 261.285 107.175 260.648C105.236 256.533 101.401 251.129 101.104 246.635C100.593 238.88 109.531 231.78 116.275 229.326C140.153 220.636 160.476 226.954 184.411 230.935C198.604 233.294 215.54 235.675 229.27 229.973C229.27 229.973 251.047 252.4 230.976 274.085C229.209 275.995 219.595 276.22 217.106 276.747C187.726 282.947 158.241 278.965 128.452 277.185C124.567 276.952 118.149 278.566 114.793 275.942C111.802 273.601 109.806 267.228 108.093 262.831Z" fill="url(#paint11_linear_24_4588)"/>
<path d="M71.0204 249.41C71.0204 249.41 103.38 231.685 116.114 230.341C116.114 230.341 117.888 247.615 109.686 258.661C109.686 258.661 80.8271 261.077 75.7231 262.924L71.0204 249.41Z" fill="url(#paint12_linear_24_4588)"/>
<path d="M41.3668 276.223C41.3668 276.223 86.7648 284.12 89.6393 264.969C92.5144 245.818 60.2381 240.176 60.2381 240.176C60.2381 240.176 39.0504 243.464 35.5936 252.34C32.1363 261.215 41.3668 276.223 41.3668 276.223Z" fill="url(#paint13_linear_24_4588)"/>
<path d="M24.143 253.523C24.143 253.523 29.4397 265.007 35.2395 265.596C41.0397 266.182 42.3014 246.362 41.4844 241.043L62.6522 232.349C62.6522 232.349 39.3966 223.991 28.4347 231.379C17.4728 238.768 24.143 253.523 24.143 253.523Z" fill="url(#paint14_linear_24_4588)"/>
<path d="M59.7061 245.255C59.7061 245.255 45.8032 237.425 52.6983 231.8C59.5933 226.175 68.0683 238.269 65.2078 243.628L59.7061 245.255Z" fill="url(#paint15_linear_24_4588)"/>
<path d="M317.382 281.01C319.244 281.832 356.235 284.216 359.779 283.983L491.116 273.215C492.703 273.085 494.297 273.203 495.852 273.561C501.17 274.784 513.999 278.203 524.064 284.607L527.076 288.487C528.086 289.793 530.162 289.334 530.529 287.72L532.605 278.562C533.073 276.489 532.164 274.343 530.34 273.256C521.272 267.847 513.164 262.112 506.709 255.811C503.358 253.212 498.64 253.35 495.446 256.14L493.461 257.874C489.827 260.198 485.553 261.303 481.248 261.027C465.291 260.007 424.841 257.074 406.648 252.525C385.978 247.357 360.603 260.726 360.603 260.726L347.582 249.861L317.382 281.01Z" fill="url(#paint16_linear_24_4588)"/>
<path d="M219.48 280.719C219.48 280.719 345.603 285.629 346.212 284.163C349.606 275.992 351.481 274.762 351.368 237.121C351.363 235.226 350.185 233.562 348.446 233.038C337.966 229.89 301.075 221.591 294.872 216.936C278.455 204.618 239.824 196.142 216.142 232.359C221.33 247.718 223.997 266.157 219.48 280.719Z" fill="#BDD0FB"/>
<path d="M130.81 247.299C167.548 251.342 221.116 270.188 279.159 283.687C292.601 280.346 300.325 282.103 307.872 286.685C309.461 287.647 308.616 290.091 306.772 289.858C295.806 288.464 286.598 287.467 279.452 290.968C223.833 281.594 172.175 278.271 125.595 276.674C113.017 274.19 109.066 263.12 114.827 254.533C118.332 249.307 124.556 246.61 130.81 247.299Z" fill="url(#paint17_linear_24_4588)"/>
<path d="M110.155 214.857C102.742 214.857 96.712 220.887 96.712 228.301C96.712 235.712 102.742 241.742 110.155 241.742C117.568 241.742 123.598 235.712 123.598 228.301C123.598 220.887 117.568 214.857 110.155 214.857ZM110.155 245.755C100.53 245.755 92.6993 237.925 92.6993 228.301C92.6993 218.674 100.53 210.844 110.155 210.844C119.78 210.844 127.611 218.674 127.611 228.301C127.611 237.925 119.78 245.755 110.155 245.755Z" fill="url(#paint18_linear_24_4588)"/>
<path d="M120.187 228.301C120.187 233.84 115.695 238.331 110.155 238.331C104.614 238.331 100.123 233.84 100.123 228.301C100.123 222.759 104.614 218.268 110.155 218.268C115.695 218.268 120.187 222.759 120.187 228.301Z" fill="url(#paint19_linear_24_4588)"/>
<path d="M399.32 244.289C392.724 244.289 387.358 249.655 387.358 256.249C387.358 262.846 392.724 268.212 399.32 268.212C405.916 268.212 411.281 262.846 411.281 256.249C411.281 249.655 405.916 244.289 399.32 244.289ZM399.32 271.781C390.756 271.781 383.786 264.814 383.786 256.249C383.786 247.685 390.756 240.717 399.32 240.717C407.883 240.717 414.851 247.685 414.851 256.249C414.851 264.814 407.883 271.781 399.32 271.781Z" fill="url(#paint20_linear_24_4588)"/>
<path d="M408.25 256.249C408.25 261.179 404.252 265.177 399.322 265.177C394.393 265.177 390.398 261.179 390.398 256.249C390.398 251.319 394.393 247.324 399.322 247.324C404.252 247.324 408.25 251.319 408.25 256.249Z" fill="url(#paint21_linear_24_4588)"/>
<path d="M193.09 215.625C195.913 218.97 257.838 199.242 253.527 193.424C260.407 195.651 269.129 201.903 277.152 216.462C258.748 229.005 211.553 231.62 201.108 228.211C199.331 227.629 197.475 227.384 195.72 228.03C192.173 229.334 186.016 231.392 182.527 231.374C177.423 231.349 172.879 250.016 163.984 245.791C163.984 245.791 166.352 214.17 193.09 215.625Z" fill="url(#paint22_linear_24_4588)"/>
<path d="M253.526 193.424C260.141 181.331 235.626 143.941 235.626 143.941L250.92 117.855C250.92 117.855 308.115 182.566 280.528 215.059C277.608 218.498 276.54 218.999 276.009 217.204C271.74 202.8 258.569 197.85 253.526 193.424Z" fill="#7D97F4"/>
<path d="M254.05 191.547C254.391 191.637 254.765 191.489 254.943 191.164C261.705 178.799 238.019 142.415 237.007 140.872C236.769 140.51 236.283 140.407 235.917 140.645C235.556 140.883 235.453 141.371 235.691 141.734C235.934 142.104 259.875 178.866 253.562 190.409C253.353 190.79 253.494 191.268 253.875 191.477C253.93 191.508 253.99 191.531 254.05 191.547Z" fill="#91B3FA"/>
<path d="M135.741 218.711C136.284 218.246 136.826 217.788 137.368 217.347C140.305 214.962 143.243 212.577 146.178 210.191C148.765 208.088 152.19 207.409 155.472 206.889C159.046 206.323 162.769 206.392 166.301 205.583C169.249 204.907 174.422 201.213 177.242 200.181C181.232 198.719 186.159 211.323 186.799 213.518C181.637 215.326 174.601 216.438 169.159 216.634C165.915 216.759 162.527 217.023 159.416 217.968C159.046 218.081 158.666 218.198 158.364 218.439C157.236 219.336 157.387 222.197 156.793 223.548C156.118 225.084 155.012 226.764 155.028 228.502C155.028 230.449 156.378 232.389 157.362 233.978C155.966 234.57 154.287 234.439 152.998 233.642C152.057 233.063 151.346 232.173 150.771 231.229C149.804 229.64 149.512 224.24 147.354 223.8C144.412 223.202 140.755 227.667 138.511 229.126C136.183 230.635 133.385 231.925 130.613 231.582C127.239 231.163 124.053 230.78 120.872 229.469C120.851 227.429 121.041 226.876 123.044 226.242C124.325 225.837 125.768 225.794 126.984 225.197C130.178 223.626 132.984 221.069 135.741 218.711Z" fill="url(#paint23_linear_24_4588)"/>
<path d="M197.005 222.421C190.03 222.421 184.356 228.096 184.356 235.071C184.356 242.046 190.03 247.721 197.005 247.721C203.981 247.721 209.655 242.046 209.655 235.071C209.655 228.096 203.981 222.421 197.005 222.421ZM197.005 251.498C187.948 251.498 180.58 244.129 180.58 235.071C180.58 226.013 187.948 218.645 197.005 218.645C206.063 218.645 213.431 226.013 213.431 235.071C213.431 244.129 206.063 251.498 197.005 251.498Z" fill="url(#paint24_linear_24_4588)"/>
<path d="M206.445 235.071C206.445 240.284 202.219 244.51 197.005 244.51C191.791 244.51 187.565 240.284 187.565 235.071C187.565 229.858 191.791 225.631 197.005 225.631C202.219 225.631 206.445 229.858 206.445 235.071Z" fill="url(#paint25_linear_24_4588)"/>
<path d="M411.172 366.993C411.978 366.993 412.694 366.472 412.831 365.738L439.046 226.979C439.201 226.158 438.581 225.382 437.664 225.244C436.747 225.106 435.877 225.658 435.722 226.478L409.507 365.237C409.356 366.056 409.972 366.833 410.892 366.971C410.982 366.986 411.079 366.993 411.172 366.993Z" fill="#7D97F4"/>
<path d="M499.602 366.994C499.711 366.994 499.823 366.984 499.939 366.964C500.85 366.798 501.441 366.004 501.256 365.189L470.353 228.236C470.172 227.422 469.283 226.89 468.368 227.058C467.457 227.224 466.869 228.016 467.051 228.833L497.954 365.786C498.112 366.5 498.816 366.994 499.602 366.994Z" fill="#7D97F4"/>
<path d="M431.172 261.27H475.966C476.897 261.27 477.652 260.596 477.652 259.766C477.652 258.934 476.897 258.26 475.966 258.26H431.172C430.241 258.26 429.487 258.934 429.487 259.766C429.487 260.596 430.241 261.27 431.172 261.27Z" fill="#7D97F4"/>
<path d="M431.988 261.27H475.155C476.05 261.27 476.778 260.595 476.778 259.766C476.778 258.934 476.05 258.26 475.155 258.26H431.988C431.09 258.26 430.362 258.934 430.362 259.766C430.362 260.595 431.09 261.27 431.988 261.27Z" fill="#7D97F4"/>
<path d="M431.173 286.361H475.967C476.898 286.361 477.652 285.687 477.652 284.855C477.652 284.023 476.898 283.348 475.967 283.348H431.173C430.242 283.348 429.487 284.023 429.487 284.855C429.487 285.687 430.242 286.361 431.173 286.361Z" fill="#7D97F4"/>
<path d="M427.105 286.361H481.411C482.345 286.361 483.098 285.687 483.098 284.855C483.098 284.023 482.345 283.349 481.411 283.349H427.105C426.174 283.349 425.421 284.023 425.421 284.855C425.421 285.687 426.174 286.361 427.105 286.361Z" fill="#7D97F4"/>
<path d="M431.172 311.45H475.966C476.897 311.45 477.652 310.776 477.652 309.944C477.652 309.111 476.897 308.437 475.966 308.437H431.172C430.241 308.437 429.487 309.111 429.487 309.944C429.487 310.776 430.241 311.45 431.172 311.45Z" fill="#7D97F4"/>
<path d="M421.919 311.45H486.923C487.852 311.45 488.609 310.776 488.609 309.944C488.609 309.112 487.852 308.437 486.923 308.437H421.919C420.987 308.437 420.233 309.112 420.233 309.944C420.233 310.776 420.987 311.45 421.919 311.45Z" fill="#7D97F4"/>
<path d="M431.169 336.539H492.148C493.079 336.539 493.834 335.864 493.834 335.032C493.834 334.203 493.079 333.529 492.148 333.529H431.169C430.241 333.529 429.486 334.203 429.486 335.032C429.486 335.864 430.241 336.539 431.169 336.539Z" fill="#7D97F4"/>
<path d="M417.722 336.539H492.148C493.079 336.539 493.834 335.864 493.834 335.032C493.834 334.203 493.079 333.529 492.148 333.529H417.722C416.791 333.529 416.035 334.203 416.035 335.032C416.035 335.864 416.791 336.539 417.722 336.539Z" fill="#7D97F4"/>
<path d="M438.041 110.419C438.041 110.419 422.558 130.245 440.227 150.41L446.866 149.791C446.866 149.791 434.084 129.261 439.778 112.895L449.187 113.582L454.389 110.19L438.041 110.419Z" fill="url(#paint26_linear_24_4588)"/>
<path d="M392.372 65.8454L465.907 62.0491C467.348 61.9745 468.561 62.8426 468.605 63.9815L470.263 108.508C470.307 109.654 469.149 110.622 467.696 110.653C454.384 110.932 395.278 112.183 392.677 112.385C390.104 112.584 389.911 76.7642 389.901 67.9271C389.898 66.8318 390.99 65.9169 392.372 65.8454Z" fill="#7D97F4"/>
<path d="M466.031 64.0971H466.016L392.488 67.8933C392.45 67.8933 392.432 67.9088 392.429 67.9119C392.457 89.3909 393.157 105.928 394.229 110.269C404.431 109.936 457.153 108.823 467.677 108.602H467.696C467.717 108.6 467.736 108.586 467.739 108.582L466.072 64.0816L466.031 64.0971ZM393.854 110.771L393.805 110.584C392.698 106.513 391.967 89.7535 391.948 67.8872C391.948 67.6299 392.171 67.4192 392.463 67.4037L465.994 63.6075C466.137 63.6013 466.258 63.6385 466.363 63.7129C466.487 63.7997 466.555 63.9267 466.561 64.0661L468.222 108.591C468.232 108.853 468.002 109.078 467.705 109.091L467.689 109.091C457.094 109.314 403.749 110.44 394.046 110.765L393.854 110.771Z" fill="url(#paint27_linear_24_4588)"/>
<path d="M440.438 70.995C440.487 72.1196 440.903 73.0174 441.366 72.996L461.805 72.0859C462.267 72.0644 462.601 71.136 462.552 70.0114C462.5 68.8837 462.087 67.989 461.624 68.0074L441.185 68.9205C440.723 68.9389 440.389 69.8704 440.438 70.995Z" fill="url(#paint28_linear_24_4588)"/>
<path d="M440.526 76.5408C440.55 77.1047 440.946 77.5429 441.409 77.5215L461.847 76.6112C462.31 76.5929 462.662 76.1178 462.638 75.557C462.613 74.9931 462.218 74.5518 461.755 74.5732L441.317 75.4834C440.854 75.5049 440.501 75.9769 440.526 76.5408Z" fill="url(#paint29_linear_24_4588)"/>
<path d="M440.526 80.7855C440.55 81.3494 440.946 81.7876 441.409 81.7692L461.847 80.859C462.31 80.8375 462.662 80.3656 462.638 79.8017C462.613 79.2378 462.218 78.7995 461.755 78.8179L441.317 79.7312C440.854 79.7496 440.501 80.2246 440.526 80.7855Z" fill="url(#paint30_linear_24_4588)"/>
<path d="M411.001 89.9542L412.577 103.532C416.002 103.53 428.534 103.471 431.642 102.756C433.852 102.247 434.988 101.082 435 100.572C435.006 100.376 434.639 100.137 434.085 99.9768C433.631 99.8463 433.337 99.4121 433.384 98.9429C433.427 98.4731 433.8 98.1032 434.269 98.0625C434.942 98.0013 435.652 97.2353 435.821 96.3878C435.944 95.7762 435.842 94.9141 434.653 94.2879C434.353 94.1306 434.155 93.8277 434.132 93.487C434.109 93.1491 434.263 92.823 434.54 92.6249C434.546 92.622 435.568 91.8444 435.539 90.9066C435.51 89.995 434.508 89.1649 433.672 88.6261C433.386 88.4426 433.215 88.1193 433.223 87.7786C433.229 87.4378 433.418 87.1262 433.713 86.9543C433.762 86.9252 435.049 86.1447 434.843 84.8515C434.685 83.8759 434.511 82.7721 430.931 83.1885C430.244 83.2672 429.519 83.3808 428.817 83.4885C426.201 83.8934 424.136 84.2137 423.05 83.2351C422.747 82.9614 422.395 82.4663 422.436 81.6595C422.465 81.0362 422.645 80.2673 422.855 79.3761C423.379 77.1364 424.096 74.0667 422.625 72.028C422.054 71.2358 421.489 70.8077 421.151 70.9184C420.799 71.029 420.516 71.6115 420.516 71.8125C420.575 72.3309 421.041 77.1627 418.131 80.4887C416.914 81.8808 416.22 83.707 415.612 85.3205C415 86.9514 414.514 88.2358 413.579 88.8533C412.682 89.4503 411.703 89.7794 411.001 89.9542ZM412.519 105.491C412.067 105.491 411.782 105.49 411.7 105.49C411.205 105.488 410.792 105.116 410.733 104.623L408.951 89.2814C408.922 89.0222 408.995 88.7601 409.158 88.5562C409.321 88.3523 409.56 88.2213 409.819 88.1951C409.854 88.1892 411.298 88.0145 412.501 87.2223C412.903 86.9544 413.369 85.7195 413.78 84.6302C414.418 82.9497 415.207 80.8557 416.657 79.1985C419.013 76.5074 418.62 72.4678 418.568 72.0164C418.451 71.0232 419.22 69.567 420.417 69.101C421.148 68.8185 422.616 68.67 424.212 70.8805C426.207 73.6444 425.336 77.3607 424.76 79.8218C424.579 80.5877 424.413 81.31 424.39 81.7556V81.8022C424.888 82.1139 427.151 81.7644 428.517 81.5547C429.236 81.4411 429.982 81.3275 430.707 81.243C433.241 80.9489 436.217 81.0595 436.774 84.5428C437.004 85.9816 436.389 87.0592 435.772 87.7465C436.89 88.7047 437.47 89.7503 437.496 90.8658C437.522 91.8764 437.074 92.7094 436.616 93.2948C437.595 94.2064 438.009 95.4413 437.741 96.7723C437.56 97.6955 437.059 98.5255 436.398 99.1153C436.902 99.687 436.966 100.298 436.957 100.626C436.91 102.326 434.86 104.025 432.079 104.664C428.715 105.438 415.926 105.491 412.519 105.491Z" fill="url(#paint31_linear_24_4588)"/>
<path d="M446.527 207.488C446.527 207.488 459.075 234.835 465.656 246.161C465.656 246.161 466.965 253.287 465.656 255.527L464.542 256.024L469.745 255.868C469.745 255.868 470.205 246.281 469.844 245.747C469.484 245.211 468.762 245.246 468.762 245.246C468.762 245.246 466.533 227.581 460.074 223.811L453.817 202.256L446.527 207.488Z" fill="url(#paint32_linear_24_4588)"/>
<path d="M462.317 257.368C462.311 257.493 466.378 257.436 468.589 257.395C469.404 257.38 470.1 256.807 470.275 256.009L471.942 247.239C472.101 246.407 471.573 245.598 470.746 245.41L469.816 245.197C469.816 245.197 468.483 247.019 468.904 248.736C469.322 250.453 469.694 254.897 468.636 255.415C467.58 255.934 464.54 256.024 464.54 256.024C464.54 256.024 462.386 256.237 462.317 257.368Z" fill="url(#paint33_linear_24_4588)"/>
<path d="M434.634 257.525C434.22 257.761 434.393 258.388 434.866 258.383C438.566 258.347 446.852 258.23 447.587 257.924C448.539 257.528 447.242 254.112 445.877 252.956L438.337 255.415L434.634 257.525Z" fill="url(#paint34_linear_24_4588)"/>
<path d="M432.293 205.745C432.293 205.745 440.402 244.968 442.695 252.618L437.269 256.024C437.269 256.024 439.988 255.56 442.005 255.415C444.022 255.27 445.876 252.956 445.876 252.956L445.224 251.919C445.224 251.919 443.192 212.909 443.687 208.48L432.293 205.745Z" fill="url(#paint35_linear_24_4588)"/>
<path d="M412.168 114.257C412.168 114.257 411.049 134.661 429.624 145.087L425.153 155.287C425.153 155.287 408.336 145.114 408.957 117.37C408.974 116.574 408.685 115.8 408.167 115.197L404.592 111.051C403.23 109.47 402.72 107.327 403.227 105.304L403.699 103.422C403.857 102.792 404.572 102.492 405.133 102.815L405.508 103.033C406.699 103.725 407.64 104.773 408.201 106.028L409.956 109.952C410.614 111.417 412.125 112.307 413.722 112.169L414.81 112.075L412.168 114.257Z" fill="url(#paint36_linear_24_4588)"/>
<path d="M428.976 143.559C432.083 144.42 442.613 147.19 449.185 147.077L445.151 169.851L445.47 173.565L432.316 173.506C432.316 173.506 428.612 164.904 425.689 160.615C424.843 159.377 425.472 157.899 425.949 156.479L425.293 156.041C424.622 155.596 424.336 154.759 424.583 153.996L427.789 144.192C427.953 143.698 428.475 143.419 428.976 143.559Z" fill="url(#paint37_linear_24_4588)"/>
<path d="M431.262 171.562L431.519 173.812C431.519 173.812 427.801 184.948 433.379 210.956C433.379 210.956 445.46 214.378 455.387 206.189C455.387 206.189 452.584 181.641 451.82 180.498C448.012 174.802 445.472 173.564 445.472 173.564L445.36 171.106C445.36 171.106 434.738 173.026 431.262 171.562Z" fill="url(#paint38_linear_24_4588)"/>
<path d="M436.413 145.393C436.366 145.332 439.161 136.96 439.161 136.96L443.161 137.323L444.725 146.82C444.725 146.82 438.455 148.086 436.413 145.393Z" fill="url(#paint39_linear_24_4588)"/>
<path d="M442.2 123.759C441.934 123.924 433.653 127.348 435.432 135.946C435.536 136.454 435.874 136.885 436.35 137.096C437.563 137.638 440.182 138.567 443.312 138.249C447.65 137.808 450.493 130.236 450.37 128.033C450.251 125.83 444.846 122.112 442.2 123.759Z" fill="url(#paint40_linear_24_4588)"/>
<path d="M444.723 120.414C444.504 120.443 439.936 122.034 442.203 125.344C444.467 128.655 445.319 130.604 444.248 132.057C443.27 133.382 441.108 132.627 441.296 135.382C441.333 135.934 441.096 136.469 440.639 136.779C438.597 138.159 433.627 142.405 438.554 148.461C438.955 148.953 439.035 149.632 438.729 150.186C437.286 152.775 434.253 160.356 445.223 164.561C456.066 168.717 459.981 161.629 461.076 158.797C461.314 158.184 461.918 157.809 462.572 157.84C463.763 157.896 465.45 157.698 465.373 156.106C465.327 155.138 464.725 154.272 464.01 153.577C463.306 152.889 463.442 151.685 464.3 151.199C464.948 150.831 465.521 150.257 465.762 149.361C466.422 146.926 465.108 139.646 458.13 138.412C457.547 138.309 456.939 137.763 456.853 137.179L456.85 137.152C456.757 136.587 456.945 136.008 457.411 135.669C458.525 134.852 459.953 133.206 458.79 130.567C457.763 128.226 455.789 127.436 454.323 127.185C453.46 127.037 452.895 126.223 453.077 125.369C453.571 123.04 453.139 119.31 444.723 120.414Z" fill="url(#paint41_linear_24_4588)"/>
<defs>
<linearGradient id="paint0_linear_24_4588" x1="546.539" y1="177.819" x2="0.00179066" y2="177.819" gradientUnits="userSpaceOnUse">
<stop stop-color="#DDE7FD"/>
<stop offset="1" stop-color="#E1EAFD"/>
</linearGradient>
<linearGradient id="paint1_linear_24_4588" x1="626.37" y1="148.803" x2="5.04989" y2="148.803" gradientUnits="userSpaceOnUse">
<stop stop-color="#CADAFD"/>
<stop offset="1" stop-color="#CBDBFD"/>
</linearGradient>
<linearGradient id="paint2_linear_24_4588" x1="377.802" y1="343.963" x2="372.7" y2="504.148" gradientUnits="userSpaceOnUse">
<stop stop-color="#4042E2"/>
<stop offset="1" stop-color="#4F52FF"/>
</linearGradient>
<linearGradient id="paint3_linear_24_4588" x1="152.199" y1="223.241" x2="210.845" y2="155.572" gradientUnits="userSpaceOnUse">
<stop stop-color="#FF928E"/>
<stop offset="1" stop-color="#FEB3B1"/>
</linearGradient>
<linearGradient id="paint4_linear_24_4588" x1="210.795" y1="110.194" x2="177.897" y2="101.456" gradientUnits="userSpaceOnUse">
<stop stop-color="#FF928E"/>
<stop offset="1" stop-color="#FEB3B1"/>
</linearGradient>
<linearGradient id="paint5_linear_24_4588" x1="171.703" y1="74.1515" x2="209.138" y2="133.972" gradientUnits="userSpaceOnUse">
<stop stop-color="#FF928E"/>
<stop offset="1" stop-color="#FEB3B1"/>
</linearGradient>
<linearGradient id="paint6_linear_24_4588" x1="202.881" y1="90.5386" x2="152.247" y2="86.0658" gradientUnits="userSpaceOnUse">
<stop stop-color="#09005D"/>
<stop offset="1" stop-color="#1A0F91"/>
</linearGradient>
<linearGradient id="paint7_linear_24_4588" x1="229.861" y1="124.044" x2="198.944" y2="86.1585" gradientUnits="userSpaceOnUse">
<stop stop-color="#FF928E"/>
<stop offset="1" stop-color="#FEB3B1"/>
</linearGradient>
<linearGradient id="paint8_linear_24_4588" x1="413.351" y1="126.934" x2="403.708" y2="255.513" gradientUnits="userSpaceOnUse">
<stop stop-color="#4042E2"/>
<stop offset="1" stop-color="#4F52FF"/>
</linearGradient>
<linearGradient id="paint9_linear_24_4588" x1="627.661" y1="161.575" x2="601.582" y2="343.087" gradientUnits="userSpaceOnUse">
<stop stop-color="#FF928E"/>
<stop offset="1" stop-color="#FEB3B1"/>
</linearGradient>
<linearGradient id="paint10_linear_24_4588" x1="12.6995" y1="195.668" x2="47.9677" y2="237.672" gradientUnits="userSpaceOnUse">
<stop stop-color="#09005D"/>
<stop offset="1" stop-color="#1A0F91"/>
</linearGradient>
<linearGradient id="paint11_linear_24_4588" x1="65.9161" y1="260.237" x2="219.321" y2="248.205" gradientUnits="userSpaceOnUse">
<stop stop-color="#FF928E"/>
<stop offset="1" stop-color="#FEB3B1"/>
</linearGradient>
<linearGradient id="paint12_linear_24_4588" x1="65.0394" y1="249.054" x2="218.445" y2="237.022" gradientUnits="userSpaceOnUse">
<stop stop-color="#FF928E"/>
<stop offset="1" stop-color="#FEB3B1"/>
</linearGradient>
<linearGradient id="paint13_linear_24_4588" x1="-373.766" y1="-1578.25" x2="-355.847" y2="-1502.71" gradientUnits="userSpaceOnUse">
<stop stop-color="#FF928E"/>
<stop offset="1" stop-color="#FEB3B1"/>
</linearGradient>
<linearGradient id="paint14_linear_24_4588" x1="-34.3467" y1="167.064" x2="40.5318" y2="241.627" gradientUnits="userSpaceOnUse">
<stop stop-color="#09005D"/>
<stop offset="1" stop-color="#1A0F91"/>
</linearGradient>
<linearGradient id="paint15_linear_24_4588" x1="90.0791" y1="-1769.06" x2="88.8493" y2="-1691.43" gradientUnits="userSpaceOnUse">
<stop stop-color="#FF928E"/>
<stop offset="1" stop-color="#FEB3B1"/>
</linearGradient>
<linearGradient id="paint16_linear_24_4588" x1="750.756" y1="17.6487" x2="671.07" y2="141.37" gradientUnits="userSpaceOnUse">
<stop stop-color="#FF928E"/>
<stop offset="1" stop-color="#FEB3B1"/>
</linearGradient>
<linearGradient id="paint17_linear_24_4588" x1="283.382" y1="101.862" x2="258.567" y2="160.517" gradientUnits="userSpaceOnUse">
<stop stop-color="#FF928E"/>
<stop offset="1" stop-color="#FEB3B1"/>
</linearGradient>
<linearGradient id="paint18_linear_24_4588" x1="121.154" y1="170.947" x2="114.228" y2="207.064" gradientUnits="userSpaceOnUse">
<stop stop-color="#E1473D"/>
<stop offset="1" stop-color="#E9605A"/>
</linearGradient>
<linearGradient id="paint19_linear_24_4588" x1="121.154" y1="170.947" x2="114.227" y2="207.065" gradientUnits="userSpaceOnUse">
<stop stop-color="#E1473D"/>
<stop offset="1" stop-color="#E9605A"/>
</linearGradient>
<linearGradient id="paint20_linear_24_4588" x1="457.999" y1="170.614" x2="446.495" y2="236.191" gradientUnits="userSpaceOnUse">
<stop stop-color="#E1473D"/>
<stop offset="1" stop-color="#E9605A"/>
</linearGradient>
<linearGradient id="paint21_linear_24_4588" x1="450.768" y1="173.818" x2="439.431" y2="238.438" gradientUnits="userSpaceOnUse">
<stop stop-color="#E1473D"/>
<stop offset="1" stop-color="#E9605A"/>
</linearGradient>
<linearGradient id="paint22_linear_24_4588" x1="210.796" y1="217.928" x2="357.021" y2="402.487" gradientUnits="userSpaceOnUse">
<stop stop-color="#FF928E"/>
<stop offset="1" stop-color="#FEB3B1"/>
</linearGradient>
<linearGradient id="paint23_linear_24_4588" x1="151.984" y1="222.734" x2="210.225" y2="155.533" gradientUnits="userSpaceOnUse">
<stop stop-color="#FF928E"/>
<stop offset="1" stop-color="#FEB3B1"/>
</linearGradient>
<linearGradient id="paint24_linear_24_4588" x1="217.132" y1="192.949" x2="197.748" y2="233.519" gradientUnits="userSpaceOnUse">
<stop stop-color="#E1473D"/>
<stop offset="1" stop-color="#E9605A"/>
</linearGradient>
<linearGradient id="paint25_linear_24_4588" x1="217.131" y1="192.949" x2="197.748" y2="233.519" gradientUnits="userSpaceOnUse">
<stop stop-color="#E1473D"/>
<stop offset="1" stop-color="#E9605A"/>
</linearGradient>
<linearGradient id="paint26_linear_24_4588" x1="547.269" y1="50.7806" x2="533.884" y2="91.8107" gradientUnits="userSpaceOnUse">
<stop stop-color="#FF928E"/>
<stop offset="1" stop-color="#FEB3B1"/>
</linearGradient>
<linearGradient id="paint27_linear_24_4588" x1="493.333" y1="15.6268" x2="587.641" y2="15.6268" gradientUnits="userSpaceOnUse">
<stop stop-color="#DAE3FE"/>
<stop offset="1" stop-color="#E9EFFD"/>
</linearGradient>
<linearGradient id="paint28_linear_24_4588" x1="546.675" y1="-0.585617" x2="573.722" y2="-0.585617" gradientUnits="userSpaceOnUse">
<stop stop-color="#DAE3FE"/>
<stop offset="1" stop-color="#E9EFFD"/>
</linearGradient>
<linearGradient id="paint29_linear_24_4588" x1="546.874" y1="6.13847" x2="573.915" y2="6.13847" gradientUnits="userSpaceOnUse">
<stop stop-color="#DAE3FE"/>
<stop offset="1" stop-color="#E9EFFD"/>
</linearGradient>
<linearGradient id="paint30_linear_24_4588" x1="546.874" y1="11.3304" x2="573.915" y2="11.3304" gradientUnits="userSpaceOnUse">
<stop stop-color="#DAE3FE"/>
<stop offset="1" stop-color="#E9EFFD"/>
</linearGradient>
<linearGradient id="paint31_linear_24_4588" x1="481.183" y1="38.1765" x2="514.737" y2="38.1765" gradientUnits="userSpaceOnUse">
<stop stop-color="#DAE3FE"/>
<stop offset="1" stop-color="#E9EFFD"/>
</linearGradient>
<linearGradient id="paint32_linear_24_4588" x1="675.269" y1="99.397" x2="626.752" y2="146.048" gradientUnits="userSpaceOnUse">
<stop stop-color="#FF928E"/>
<stop offset="1" stop-color="#FEB3B1"/>
</linearGradient>
<linearGradient id="paint33_linear_24_4588" x1="605.399" y1="124.334" x2="590.932" y2="218.373" gradientUnits="userSpaceOnUse">
<stop stop-color="#4042E2"/>
<stop offset="1" stop-color="#4F52FF"/>
</linearGradient>
<linearGradient id="paint34_linear_24_4588" x1="545.866" y1="132.402" x2="532.083" y2="221.995" gradientUnits="userSpaceOnUse">
<stop stop-color="#4042E2"/>
<stop offset="1" stop-color="#4F52FF"/>
</linearGradient>
<linearGradient id="paint35_linear_24_4588" x1="599.323" y1="105.12" x2="559.335" y2="156.66" gradientUnits="userSpaceOnUse">
<stop stop-color="#FF928E"/>
<stop offset="1" stop-color="#FEB3B1"/>
</linearGradient>
<linearGradient id="paint36_linear_24_4588" x1="526.709" y1="-15.2341" x2="504.382" y2="34.571" gradientUnits="userSpaceOnUse">
<stop stop-color="#FF928E"/>
<stop offset="1" stop-color="#FEB3B1"/>
</linearGradient>
<linearGradient id="paint37_linear_24_4588" x1="529.272" y1="115.954" x2="561.479" y2="234.045" gradientUnits="userSpaceOnUse">
<stop stop-color="#FE7062"/>
<stop offset="1" stop-color="#FF928E"/>
</linearGradient>
<linearGradient id="paint38_linear_24_4588" x1="529.57" y1="114.348" x2="562.188" y2="233.945" gradientUnits="userSpaceOnUse">
<stop stop-color="#09005D"/>
<stop offset="1" stop-color="#1A0F91"/>
</linearGradient>
<linearGradient id="paint39_linear_24_4588" x1="521.077" y1="97.7046" x2="530.875" y2="97.7046" gradientUnits="userSpaceOnUse">
<stop stop-color="#FF928E"/>
<stop offset="1" stop-color="#FEB3B1"/>
</linearGradient>
<linearGradient id="paint40_linear_24_4588" x1="543.401" y1="81.455" x2="615.558" y2="86.3616" gradientUnits="userSpaceOnUse">
<stop stop-color="#FF928E"/>
<stop offset="1" stop-color="#FEB3B1"/>
</linearGradient>
<linearGradient id="paint41_linear_24_4588" x1="574.145" y1="67.1291" x2="547.936" y2="119.547" gradientUnits="userSpaceOnUse">
<stop stop-color="#09005D"/>
<stop offset="1" stop-color="#1A0F91"/>
</linearGradient>
</defs>
</svg>
