<svg width="178" height="34" viewBox="0 0 178 34" fill="none" xmlns="http://www.w3.org/2000/svg">
<g clip-path="url(#clip0_1_2355)">
<path d="M19.6 20.2001L16.3 16.9001L19.6 13.7001V7.1001L9.79999 16.9001L19.6 26.7001V20.2001Z" fill="#0A0521"/>
<path d="M0 0.600098V33.2001H32.6V0.600098H0ZM28 28.6001H4.7V5.3001H28V28.6001Z" fill="#0A0521"/>
<path d="M40.7 12.1004V9.40039C40.8 9.40039 40.9 9.50039 41 9.50039C41.2 9.50039 41.4 9.60039 41.7 9.60039C42.5 9.60039 43.1 9.30039 43.4 8.60039L43.5 8.40039L39.6 0.900391H43L45 5.60039H45.1L46.8 0.900391H50.2L46.3 9.30039C45.8 10.3004 45.3 11.1004 44.6 11.6004C44 12.1004 43.2 12.4004 42.2 12.4004C41.8 12.4004 41.4 12.4004 41.1 12.3004L40.7 12.1004Z" fill="#0A0521"/>
<path d="M52.6 12.2005V1.00049H55.7V5.10049H59.8V1.00049H62.9V12.3005H59.8V8.00049H55.7V12.3005H52.6V12.2005Z" fill="#0A0521"/>
<path d="M66.7 12.2005V1.00049H69.8V7.20049L74.6 1.00049H77.3V12.3005H74.2V6.00049L69.4 12.2005H66.7Z" fill="#0A0521"/>
<path d="M81.1 12.2005V1.00049H86.1C87.3 1.00049 88.3 1.30049 89 1.90049C89.7 2.50049 90 3.20049 90 4.00049C90 4.80049 89.7 5.40049 89.1 5.90049C88.9 6.10049 88.6 6.20049 88.3 6.40049C88.7 6.60049 89.1 6.70049 89.4 7.00049C90.2 7.60049 90.5 8.30049 90.5 9.20049C90.5 10.1005 90.1 10.8005 89.4 11.4005C88.7 12.0005 87.7 12.3005 86.4 12.3005H81.1V12.2005ZM84.2 5.30049H85.9C86.2 5.30049 86.5 5.20049 86.7 5.00049C86.9 4.80049 87 4.60049 87 4.30049C87 4.00049 86.8 3.80049 86.6 3.60049C86.4 3.40049 86.2 3.30049 85.8 3.30049H84.1V5.30049H84.2ZM84.2 9.80049H86.3C86.7 9.80049 86.9 9.70049 87.2 9.50049C87.4 9.30049 87.5 9.00049 87.5 8.70049C87.5 8.40049 87.4 8.10049 87.2 7.90049C86.9 7.70049 86.6 7.60049 86.3 7.60049H84.2V9.80049Z" fill="#0A0521"/>
<path d="M93.7 12.2005V1.00049H102.3V3.70049H96.7V5.30049H101V7.90049H96.7V9.50049H102.4V12.2005H93.7Z" fill="#0A0521"/>
<path d="M105.7 12.2005V1.00049H110.8C112 1.00049 113 1.40049 113.8 2.10049C114.6 2.80049 115 3.80049 115 4.90049C115 6.00049 114.6 7.00049 113.8 7.70049C113 8.40049 112 8.80049 110.8 8.80049H108.8V12.2005H105.7ZM108.8 6.10049H110.7C111.1 6.10049 111.4 6.00049 111.6 5.70049C111.9 5.50049 112 5.20049 112 4.90049C112 4.60049 111.9 4.30049 111.6 4.10049C111.3 3.90049 111 3.70049 110.7 3.70049H108.8V6.10049Z" fill="#0A0521"/>
<path d="M126.9 8.30029L128.8 10.4003C128.4 10.8003 128 11.2003 127.5 11.5003C126.4 12.2003 125.2 12.6003 123.8 12.6003C122 12.6003 120.5 12.0003 119.3 10.9003C118.1 9.70029 117.5 8.30029 117.5 6.70029C117.5 5.10029 118.1 3.60029 119.3 2.50029C120.5 1.30029 122 0.800293 123.8 0.800293C125.2 0.800293 126.4 1.20029 127.4 1.90029C127.9 2.20029 128.3 2.60029 128.6 3.00029L126.7 5.10029C126.5 4.80029 126.2 4.60029 125.9 4.40029C125.2 3.90029 124.5 3.70029 123.7 3.70029C122.8 3.70029 122.1 4.00029 121.5 4.60029C120.9 5.20029 120.6 5.90029 120.6 6.80029C120.6 7.70029 120.9 8.40029 121.5 9.00029C122.1 9.60029 122.8 9.90029 123.7 9.90029C124.4 9.90029 125.2 9.70029 125.9 9.20029C126.3 8.80029 126.6 8.50029 126.9 8.30029Z" fill="#0A0521"/>
<path d="M131.6 12.2005V1.00049H134.7V7.20049L139.5 1.00049H142.2V12.3005H139.1V6.00049L134.3 12.2005H131.6Z" fill="#0A0521"/>
<path d="M148.2 12.2005V3.70049H145.1V1.00049H154.4V3.70049H151.3V12.2005H148.2Z" fill="#0A0521"/>
<path d="M157.3 12.2005V1.00049H165.9V3.70049H160.3V5.30049H164.6V7.90049H160.3V9.50049H166V12.2005H157.3Z" fill="#0A0521"/>
<path d="M171.4 12.2005V3.70049H168.3V1.00049H177.6V3.70049H174.5V12.2005H171.4Z" fill="#0A0521"/>
<path d="M53.3 26.8005L56.1 30.0005C55.5 30.6005 54.9 31.2005 54.2 31.7005C52.6 32.8005 50.7 33.4005 48.6 33.4005C45.8 33.4005 43.5 32.5005 41.7 30.7005C39.9 28.9005 38.9 26.8005 38.9 24.2005C38.9 21.6005 39.8 19.5005 41.7 17.7005C43.5 15.9005 45.8 15.0005 48.6 15.0005C50.7 15.0005 52.5 15.6005 54.2 16.7005C54.9 17.2005 55.5 17.8005 56.1 18.4005L53.2 21.6005C52.8 21.2005 52.4 20.8005 51.9 20.5005C50.8 19.8005 49.7 19.4005 48.6 19.4005C47.2 19.4005 46.1 19.9005 45.2 20.8005C44.3 21.7005 43.8 22.9005 43.8 24.2005C43.8 25.6005 44.3 26.7005 45.2 27.6005C46.1 28.5005 47.3 29.0005 48.6 29.0005C49.7 29.0005 50.8 28.6005 52 27.9005C52.5 27.6005 53 27.2005 53.3 26.8005Z" fill="#0A0521"/>
<path d="M58.2 32.9006V15.6006H62.9V25.1006L70.3 15.6006H74.4V32.9006H69.7V23.4006L62.3 32.9006H58.2Z" fill="#0A0521"/>
<path d="M78 32.9006V15.6006H82.7V21.9006H89V15.6006H93.7V32.9006H89V26.3006H82.7V32.9006H78Z" fill="#0A0521"/>
<path d="M97.2 32.9006V15.6006H110.4V19.8006H101.9V22.3006H108.5V26.3006H101.9V28.8006H110.7V33.0006H97.2V32.9006Z" fill="#0A0521"/>
<path d="M113.3 32.9006V15.6006H121.1C123 15.6006 124.5 16.2006 125.7 17.3006C126.9 18.4006 127.5 19.9006 127.5 21.6006C127.5 23.3006 126.9 24.8006 125.7 25.9006C124.5 27.0006 123 27.6006 121.1 27.6006H118V32.8006H113.3V32.9006ZM118 23.5006H120.8C121.3 23.5006 121.8 23.3006 122.2 22.9006C122.6 22.5006 122.8 22.1006 122.8 21.6006C122.8 21.1006 122.6 20.7006 122.2 20.3006C121.8 19.9006 121.3 19.7006 120.8 19.7006H118V23.5006Z" fill="#0A0521"/>
<path d="M130.1 32.9006V15.6006H142.2V20.1006H134.8V33.0006H130.1V32.9006Z" fill="#0A0521"/>
<path d="M144.2 32.9006V15.6006H148.9V25.1006L156.3 15.6006H160.4V32.9006H155.7V23.4006L148.3 32.9006H144.2Z" fill="#0A0521"/>
<path d="M162.6 32.9006L166.2 26.5006C165.6 26.2006 165.1 25.9006 164.7 25.4006C163.7 24.4006 163.2 23.1006 163.2 21.5006C163.2 19.8006 163.8 18.4006 165 17.3006C166.2 16.2006 167.7 15.6006 169.5 15.6006H177.7V32.9006H173V27.5006H170.4L167.6 32.9006H162.6ZM169.8 23.2006H173V19.7006H169.8C169.3 19.7006 168.8 19.9006 168.5 20.2006C168.2 20.5006 168 20.9006 168 21.4006C168 21.9006 168.2 22.3006 168.5 22.6006C168.8 23.1006 169.2 23.2006 169.8 23.2006Z" fill="#0A0521"/>
</g>
<defs>
<clipPath id="clip0_1_2355">
<rect width="177.7" height="32.8" fill="white" transform="translate(0 0.600098)"/>
</clipPath>
</defs>
</svg>
