<svg width="262" height="28" viewBox="0 0 262 28" fill="none" xmlns="http://www.w3.org/2000/svg">
<path d="M16.6581 5.9711V8.14852V10.6888H19.2153H21.4071V19.6888H19.2153H16.6581V22.2292V24.4066H7.59844V22.2292V19.6888H5.11433H2.92248V10.6888H5.11433H7.6715V8.14852V5.9711H16.6581ZM19.4345 3.06787H4.89515V7.93077H0V22.3743H4.89515V27.2372H19.4345V22.3743H24.3296V7.93077H19.4345V3.06787Z" fill="#FF0044"/>
<path d="M11.9821 15.189L14.1739 12.939V8.87451L7.89062 15.189L14.1739 21.431V17.3664L11.9821 15.189Z" fill="#FF0044"/>
<path d="M138.379 3.57568V26.8015H139.767V3.57568H138.379Z" fill="#FF0044"/>
<path d="M31.4165 11.7045V9.6723C31.4895 9.6723 31.5626 9.7449 31.6357 9.7449C31.7818 9.8174 31.9279 9.8174 32.1471 9.8174C32.7316 9.8174 33.17 9.5997 33.3891 9.09164L33.4622 8.94648L30.6128 3.50293H33.0969L34.6312 6.91422H34.7043L35.9463 3.50293H38.4304L35.4349 9.6723C35.0696 10.3981 34.7043 10.9787 34.1928 11.3416C33.7545 11.7045 33.17 11.9223 32.4393 11.9223C32.1471 11.9223 31.8548 11.9223 31.6357 11.8497L31.4165 11.7045Z" fill="#008694"/>
<path d="M40.1108 11.7778V3.57617H42.3758V6.55198H45.3713V3.57617H47.6362V11.7778H45.3713V8.65682H42.3758V11.7778H40.1108Z" fill="#008694"/>
<path d="M50.4126 11.7778V3.57617H52.6045V8.07617L56.1114 3.57617H58.0841V11.7778H55.8192V7.27778L52.3122 11.7778H50.4126Z" fill="#008694"/>
<path d="M60.9336 11.7778V3.57617H64.5867C65.4634 3.57617 66.194 3.79391 66.7055 4.2294C67.2169 4.66488 67.4361 5.17295 67.4361 5.75359C67.4361 6.33424 67.2169 6.76972 66.7785 7.13262C66.6324 7.27779 66.4132 7.35037 66.194 7.49553C66.4863 7.64069 66.7785 7.71327 66.9977 7.93101C67.5822 8.3665 67.8014 8.87456 67.8014 9.5278C67.8014 10.181 67.5092 10.6891 66.9977 11.1246C66.4863 11.56 65.7557 11.7778 64.8059 11.7778H60.9336ZM63.1254 6.69714H64.3675C64.5867 6.69714 64.8059 6.62456 64.952 6.4794C65.0981 6.33424 65.1712 6.18908 65.1712 5.97133C65.1712 5.75359 65.0981 5.60843 64.952 5.46327C64.8059 5.39069 64.5867 5.31811 64.3675 5.31811H63.1254V6.69714ZM63.1254 9.9633H64.6597C64.952 9.9633 65.0981 9.8907 65.3173 9.7455C65.4634 9.6004 65.5365 9.38262 65.5365 9.16488C65.5365 8.94714 65.4634 8.7294 65.3173 8.58424C65.1712 8.43908 64.952 8.36649 64.6597 8.36649H63.1254V9.9633Z" fill="#008694"/>
<path d="M70.1392 11.7778V3.57617H76.4225V5.53585H72.331V6.69714H75.4727V8.58424H72.331V9.7455H76.4955V11.7052H70.1392V11.7778Z" fill="#008694"/>
<path d="M78.9067 11.7778V3.57617H82.6329C83.5096 3.57617 84.2402 3.86649 84.8247 4.37456C85.4092 4.88262 85.7015 5.60843 85.7015 6.40682C85.7015 7.2052 85.4092 7.93101 84.8247 8.43908C84.2402 8.94714 83.5096 9.23746 82.6329 9.23746H81.1717V11.7052H78.9067V11.7778ZM81.0986 7.27778H82.4868C82.779 7.27778 82.9982 7.2052 83.1443 6.98746C83.3635 6.8423 83.4366 6.62456 83.4366 6.40682C83.4366 6.18908 83.3635 5.97133 83.1443 5.82617C82.9251 5.68101 82.706 5.53585 82.4868 5.53585H81.0986V7.27778Z" fill="#008694"/>
<path d="M94.3224 8.8747L95.7106 10.3989C95.4183 10.6892 95.1261 10.9795 94.7608 11.1973C93.9571 11.7053 93.0804 11.9957 92.0575 11.9957C90.7424 11.9957 89.6465 11.5602 88.7697 10.7618C87.893 9.8908 87.4546 8.8747 87.4546 7.71341C87.4546 6.47954 87.893 5.46341 88.7697 4.66502C89.6465 3.79406 90.7424 3.43115 92.0575 3.43115C93.0804 3.43115 93.9571 3.72147 94.6877 4.22954C95.053 4.44728 95.3453 4.7376 95.5645 5.02793L94.1763 6.55212C94.0302 6.33438 93.811 6.18922 93.5918 6.04406C93.0804 5.68115 92.5689 5.53599 91.9844 5.53599C91.3269 5.53599 90.8154 5.75373 90.3771 6.18922C89.9387 6.6247 89.7195 7.13277 89.7195 7.78599C89.7195 8.43922 89.9387 8.94728 90.3771 9.38277C90.8154 9.8183 91.3269 10.036 91.9844 10.036C92.4959 10.036 93.0804 9.8908 93.5918 9.5279C93.9571 9.2376 94.1763 9.09244 94.3224 8.8747Z" fill="#008694"/>
<path d="M97.8296 11.7778V3.57617H100.095V8.07617L103.601 3.57617H105.574V11.7778H103.309V7.27778L99.8023 11.7778H97.8296Z" fill="#008694"/>
<path d="M109.958 11.7778V5.53585H107.693V3.57617H114.488V5.53585H112.223V11.7052H109.958V11.7778Z" fill="#008694"/>
<path d="M116.606 11.7778V3.57617H122.89V5.53585H118.798V6.69714H121.94V8.58424H118.798V9.7455H122.963V11.7052H116.606V11.7778Z" fill="#008694"/>
<path d="M126.908 11.7778V5.53585H124.644V3.57617H131.438V5.53585H129.173V11.7052H126.908V11.7778Z" fill="#008694"/>
<path d="M40.6225 22.3744L42.6682 24.697C42.2298 25.1325 41.7915 25.5679 41.28 25.9309C40.111 26.7292 38.7229 27.0921 37.1886 27.0921C35.1428 27.0921 33.4624 26.4389 32.1473 25.1325C30.8322 23.826 30.1016 22.3018 30.1016 20.4147C30.1016 18.5276 30.7591 17.0034 32.1473 15.697C33.4624 14.3905 35.1428 13.7373 37.1886 13.7373C38.7229 13.7373 40.038 14.1728 41.28 14.9712C41.7915 15.3341 42.2298 15.7696 42.6682 16.205L40.6225 18.5276C40.3302 18.2373 40.038 17.947 39.6727 17.7292C38.869 17.2212 37.9922 16.9309 37.1886 16.9309C36.1657 16.9309 35.362 17.2938 34.7045 17.947C34.0469 18.6002 33.6816 19.4712 33.6816 20.4147C33.6816 21.4309 34.0469 22.2292 34.7045 22.8825C35.362 23.5357 36.2388 23.8986 37.1886 23.8986C37.9922 23.8986 38.7959 23.6083 39.6727 23.1002C40.038 22.955 40.3302 22.6647 40.6225 22.3744Z" fill="#008694"/>
<path d="M44.2026 26.7288V14.1724H47.6365V21.0675L53.0431 14.1724H56.0387V26.7288H52.6048V19.8337L47.1982 26.7288H44.2026Z" fill="#008694"/>
<path d="M58.6689 26.7288V14.1724H62.1029V18.7449H66.7058V14.1724H70.1397V26.7288H66.7058V22.0111H62.1029V26.8014H58.6689V26.7288Z" fill="#008694"/>
<path d="M72.6968 26.7288V14.1724H82.3409V17.2207H76.1307V19.0353H80.9528V21.9385H76.1307V23.753H82.5601V26.8014H72.6968V26.7288Z" fill="#008694"/>
<path d="M84.3867 26.7288V14.1724H90.0855C91.4737 14.1724 92.5696 14.6078 93.4464 15.4062C94.3231 16.2046 94.7615 17.2933 94.7615 18.5272C94.7615 19.7611 94.3231 20.8498 93.4464 21.6482C92.5696 22.4466 91.4737 22.882 90.0855 22.882H87.8206V26.6562H84.3867V26.7288ZM87.8206 19.9062H89.8664C90.2317 19.9062 90.597 19.7611 90.8892 19.4707C91.1815 19.1804 91.3276 18.8901 91.3276 18.5272C91.3276 18.1643 91.1815 17.874 90.8892 17.5837C90.597 17.2933 90.2317 17.1482 89.8664 17.1482H87.8206V19.9062Z" fill="#008694"/>
<path d="M96.6606 26.7288V14.1724H105.501V17.4385H100.095V26.8014H96.6606V26.7288Z" fill="#008694"/>
<path d="M107.036 26.7288V14.1724H110.47V21.0675L115.876 14.1724H118.872V26.7288H115.438V19.8337L110.031 26.7288H107.036Z" fill="#008694"/>
<path d="M120.479 26.7288L123.109 22.0837C122.671 21.8659 122.306 21.6482 122.013 21.2853C121.283 20.5595 120.917 19.6159 120.917 18.4546C120.917 17.2207 121.356 16.2046 122.232 15.4062C123.109 14.6078 124.205 14.1724 125.52 14.1724H131.511V26.7288H128.077V22.8095H126.178L124.132 26.7288H120.479ZM125.739 19.7611H128.077V17.2207H125.739C125.374 17.2207 125.009 17.3659 124.79 17.5837C124.57 17.8014 124.424 18.0917 124.424 18.4546C124.424 18.8175 124.57 19.1078 124.79 19.3256C125.009 19.6159 125.301 19.7611 125.739 19.7611Z" fill="#008694"/>
<path d="M146.562 13.52V3.50391H148.023L151.822 8.36681L155.622 3.50391H157.083V13.4475H155.476V6.11681L151.822 10.762L148.169 6.11681V13.4475H146.562V13.52Z" fill="#008694"/>
<path d="M159.567 13.52V3.50391H166.654V5.0281H161.101V7.56842H165.485V9.09262H161.101V11.9958H166.8V13.52H159.567Z" fill="#008694"/>
<path d="M167.239 15.6249V11.9958H167.823C168.116 11.7055 168.408 11.27 168.7 10.762C169.285 9.6733 169.577 8.22165 169.577 6.47971V3.50391H176.079V11.9958H177.321V15.6249H175.714V13.52H168.773V15.6249H167.239ZM169.504 11.9958H174.472V5.0281H171.111V6.55229C171.111 8.22165 170.819 9.6007 170.307 10.8346C170.015 11.27 169.796 11.7055 169.504 11.9958Z" fill="#008694"/>
<path d="M178.782 13.52V3.50391H180.39V10.8346L185.942 3.50391H187.404V13.4475H185.796V6.11681L180.243 13.4475H178.782V13.52Z" fill="#008694"/>
<path d="M189.888 13.52V3.50391H191.495V11.9958H196.317V3.50391H197.924V11.9958H199.167V15.6249H197.559V13.52H189.888Z" fill="#008694"/>
<path d="M200.555 13.52V3.50391H202.162V10.8346L207.715 3.50391H209.176V13.4475H207.496V6.11681L201.943 13.4475H200.555V13.52Z" fill="#008694"/>
<path d="M211.66 13.52V3.50391H213.268V7.71358H218.236V3.50391H219.843V13.4475H218.236V9.09262H213.268V13.4475H211.66V13.52Z" fill="#008694"/>
<path d="M230.218 10.6165L231.241 11.6326C230.948 11.9955 230.583 12.3584 230.145 12.6487C229.195 13.3019 228.172 13.6648 227.076 13.6648C225.542 13.6648 224.3 13.1568 223.277 12.1407C222.254 11.1245 221.743 9.9632 221.743 8.51162C221.743 7.06001 222.254 5.89872 223.277 4.88259C224.3 3.86646 225.542 3.3584 227.076 3.3584C228.245 3.3584 229.268 3.64872 230.145 4.30195C230.583 4.59227 230.875 4.95517 231.168 5.2455L230.145 6.26162C229.926 5.9713 229.706 5.75356 229.414 5.53582C228.757 5.02775 227.953 4.81001 227.076 4.81001C226.053 4.81001 225.177 5.17291 224.446 5.89872C223.715 6.62453 223.35 7.49549 223.35 8.51162C223.35 9.5278 223.715 10.3987 224.446 11.1245C225.177 11.8503 226.053 12.2132 227.076 12.2132C227.953 12.2132 228.757 11.9229 229.414 11.4148C229.706 11.1971 229.999 10.9068 230.218 10.6165Z" fill="#008694"/>
<path d="M232.775 13.52V3.50391H234.382V8.36681L238.912 3.50391H240.958L237.086 7.641L241.25 13.52H239.277L235.99 8.80229L234.382 10.5442V13.52H232.775Z" fill="#008694"/>
<path d="M242.346 13.52V3.50391H243.954V10.8346L249.506 3.50391H250.967V13.4475H249.36V6.11681L243.807 13.4475H242.346V13.52Z" fill="#008694"/>
<path d="M253.452 13.5201V3.50392H255.059V10.8346L260.612 3.50392H262.073V13.4475H260.466V6.11683L254.913 13.4475H253.452V13.5201ZM255.57 0.237793H256.666C256.666 0.52812 256.739 0.74586 256.959 0.9636C257.178 1.18134 257.397 1.25392 257.689 1.25392C257.982 1.25392 258.201 1.18134 258.42 0.9636C258.639 0.74586 258.712 0.52812 258.712 0.237793H259.808C259.808 0.81844 259.589 1.25392 259.224 1.68941C258.858 2.05231 258.347 2.27005 257.762 2.27005C257.178 2.27005 256.666 2.05231 256.301 1.68941C255.79 1.25392 255.57 0.81844 255.57 0.237793Z" fill="#008694"/>
<path d="M150.507 27.0196V25.7132C149.046 25.568 147.877 25.1325 147 24.4067C146.197 23.6809 145.758 22.7374 145.758 21.5761C145.758 20.4148 146.197 19.4712 147 18.7454C147.804 18.0196 148.973 17.5841 150.507 17.439V16.4229H152.115V17.439C153.576 17.5841 154.745 18.0196 155.622 18.7454C156.425 19.4712 156.864 20.4148 156.864 21.5761C156.864 22.7374 156.425 23.6809 155.622 24.4067C154.818 25.1325 153.649 25.568 152.115 25.7132V27.0196H150.507ZM150.507 24.3341V18.8906C149.558 18.9632 148.754 19.2535 148.169 19.7616C147.585 20.2696 147.366 20.8503 147.366 21.5761C147.366 22.3019 147.658 22.9551 148.169 23.3906C148.754 23.9712 149.484 24.2616 150.507 24.3341ZM152.042 18.8906V24.3341C152.991 24.2616 153.795 23.9712 154.38 23.4632C154.964 22.9551 155.183 22.3745 155.183 21.6487C155.183 20.9229 154.891 20.2696 154.38 19.8341C153.795 19.2535 153.064 18.9632 152.042 18.8906Z" fill="#008694"/>
<path d="M157.302 26.7297L161.321 16.7861H163.074L167.093 26.7297H165.412L164.389 24.1894H159.932L158.91 26.7297H157.302ZM160.517 22.7377H163.805L162.124 18.6006L160.517 22.7377Z" fill="#008694"/>
<path d="M168.334 26.7297V16.7861H169.942V21.649L174.472 16.7861H176.517L172.645 20.9232L176.81 26.8023H174.837L171.549 22.0845L169.942 23.8265V26.8023H168.334V26.7297Z" fill="#008694"/>
<path d="M177.467 26.6571V25.2055C177.54 25.2781 177.613 25.2781 177.687 25.2781C177.906 25.3506 178.052 25.3506 178.271 25.3506C178.709 25.3506 179.148 25.2781 179.367 25.0603C179.659 24.8426 179.878 24.5523 180.098 24.1168L180.317 23.6813L176.518 16.7861H178.198L181.12 22.1571L183.605 16.7861H185.285L181.559 24.5523C181.194 25.3506 180.755 25.9313 180.244 26.2942C179.805 26.6571 179.148 26.8748 178.49 26.8748C178.198 26.8748 177.906 26.8748 177.687 26.8023L177.467 26.6571Z" fill="#008694"/>
<path d="M185.065 26.6569V25.2053C185.138 25.2779 185.212 25.2779 185.285 25.2779C185.431 25.3505 185.65 25.3505 185.869 25.3505C186.161 25.3505 186.381 25.2779 186.527 25.1327C186.746 24.9876 186.892 24.6973 187.111 24.3343C187.257 23.9714 187.403 23.3908 187.55 22.5924C187.623 21.794 187.696 20.8505 187.696 19.6892V16.7134H194.49V26.6569H192.883V18.2376H189.23V19.7618C189.23 20.9231 189.157 21.8666 189.084 22.7376C189.011 23.6085 188.865 24.2618 188.645 24.7698C188.499 25.2779 188.28 25.7134 187.988 26.0037C187.696 26.294 187.403 26.5118 187.184 26.6569C186.892 26.8021 186.527 26.8021 186.161 26.8021C185.869 26.8021 185.577 26.8021 185.358 26.7295L185.065 26.6569Z" fill="#008694"/>
<path d="M197.048 26.7297V16.7861H198.655V20.3426H201.066C202.016 20.3426 202.82 20.6329 203.477 21.2861C204.135 21.9394 204.427 22.6652 204.427 23.5361C204.427 24.4071 204.135 25.2055 203.477 25.7861C202.82 26.4394 202.016 26.7297 201.066 26.7297H197.048ZM198.655 25.3507H201.066C201.578 25.3507 202.016 25.2055 202.308 24.8426C202.674 24.4797 202.82 24.0442 202.82 23.6087C202.82 23.1007 202.674 22.6652 202.308 22.3748C201.943 22.0119 201.505 21.8668 201.066 21.8668H198.655V25.3507Z" fill="#008694"/>
<path d="M208.08 26.7295V18.2376H205.084V16.7134H212.683V18.2376H209.687V26.7295H208.08Z" fill="#008694"/>
<path d="M214.145 26.7297V16.7861H221.232V18.3103H215.679V20.8506H220.063V22.3748H215.679V25.2781H221.378V26.8023H214.145V26.7297Z" fill="#008694"/>
<path d="M225.03 26.7295V18.2376H222.035V16.7134H229.633V18.2376H226.638V26.7295H225.03Z" fill="#008694"/>
</svg>
