<svg width="28" height="28" viewBox="0 0 28 28" fill="none" xmlns="http://www.w3.org/2000/svg">
<path d="M14 0.556641C11.3412 0.556641 8.74202 1.34508 6.53127 2.82225C4.32053 4.29943 2.59746 6.39899 1.57996 8.85545C0.562465 11.3119 0.296242 14.0149 0.814957 16.6227C1.33367 19.2304 2.61403 21.6258 4.49411 23.5059C6.3742 25.386 8.76958 26.6663 11.3773 27.185C13.9851 27.7038 16.6881 27.4375 19.1446 26.42C21.601 25.4025 23.7006 23.6795 25.1777 21.4687C26.6549 19.258 27.4434 16.6588 27.4434 14C27.4395 10.4358 26.0219 7.01868 23.5016 4.49841C20.9813 1.97813 17.5642 0.560533 14 0.556641V0.556641ZM14 26.183C11.5904 26.183 9.23496 25.4685 7.23147 24.1298C5.22798 22.7911 3.66645 20.8884 2.74434 18.6622C1.82223 16.4361 1.58097 13.9865 2.05106 11.6232C2.52114 9.25992 3.68146 7.08911 5.38529 5.38529C7.08912 3.68146 9.25993 2.52113 11.6232 2.05105C13.9865 1.58096 16.4361 1.82223 18.6623 2.74433C20.8884 3.66644 22.7911 5.22797 24.1298 7.23146C25.4685 9.23495 26.183 11.5904 26.183 14C26.1792 17.2299 24.8943 20.3265 22.6104 22.6104C20.3265 24.8943 17.23 26.1791 14 26.183Z" fill="#009BA6"/>
<path d="M19.0202 9.45436L11.1475 17.1969L8.99443 14.9304C8.87833 14.8139 8.72125 14.7473 8.55675 14.745C8.39225 14.7427 8.23337 14.8048 8.11406 14.9181C7.99475 15.0314 7.92447 15.1868 7.91824 15.3512C7.91201 15.5156 7.97031 15.676 8.0807 15.7979L10.6748 18.5286C10.7324 18.5891 10.8015 18.6374 10.8779 18.671C10.9543 18.7045 11.0367 18.7225 11.1202 18.724H11.1307C11.2957 18.7238 11.4541 18.659 11.5718 18.5433L19.9004 10.3513C19.9594 10.2932 20.0064 10.2241 20.0387 10.1479C20.071 10.0716 20.088 9.98977 20.0887 9.90697C20.0894 9.82417 20.0737 9.74205 20.0427 9.66529C20.0116 9.58853 19.9658 9.51864 19.9077 9.45961C19.8496 9.40058 19.7805 9.35356 19.7043 9.32125C19.628 9.28893 19.5462 9.27194 19.4634 9.27126C19.3806 9.27058 19.2985 9.28621 19.2217 9.31727C19.145 9.34832 19.0751 9.39419 19.016 9.45226L19.0202 9.45436Z" fill="#009BA6"/>
</svg>
